<?xml version="1.0" encoding="utf-8"?>
<!-- Generator: Adobe Illustrator 17.1.0, SVG Export Plug-In . SVG Version: 6.00 Build 0)  -->
<!DOCTYPE svg PUBLIC "-//W3C//DTD SVG 1.1//EN" "http://www.w3.org/Graphics/SVG/1.1/DTD/svg11.dtd">
<svg version="1.1" id="LOGO_copy_2_1_" xmlns="http://www.w3.org/2000/svg" xmlns:xlink="http://www.w3.org/1999/xlink" x="0px"
	 y="0px" viewBox="0 0 536.304 84.346" style="enable-background:new 0 0 536.304 84.346;" xml:space="preserve">
<g id="sinistrocular_1_">
	<g>
		<path style="fill:#FEB895;" d="M6.89,27.252c0-9.129,6.98-14.442,15.312-14.442c2.176,0,4.278,0.3,5.779,0.674
			s2.552,0.748,3.303,0.748c0.825,0,1.351-0.599,1.726-1.122h5.554l5.554,7.482v15.714h-4.954l-6.755-6.286
			c-0.6-3.292-1.876-6.585-4.954-6.585c-2.702,0-3.978,1.571-3.978,3.816c0,1.945,0.675,3.218,5.704,4.938
			C39.766,35.857,45.92,42.816,45.92,54.115c0,9.429-7.206,15.714-14.711,15.714c-3.152,0-6.155-0.749-7.656-1.796
			c-1.201-0.823-2.477-1.497-3.453-1.497c-1.051,0-1.726,2.021-2.176,2.844h-6.53l-5.029-6.51V44.388h6.605
			c1.276,2.694,3.303,5.912,4.503,7.333c1.426,1.796,3.753,3.592,6.605,3.592c1.576,0,3.752-0.897,3.752-2.843
			c0-2.769-6.229-4.116-9.232-5.762C13.345,43.789,6.89,37.429,6.89,27.252z M16.573,24.857c0-2.918,1.951-6.136,6.155-6.136
			c3.228,0,6.905,2.469,8.256,4.19c1.125,1.422,2.026,3.517,2.552,5.762h3.678V14.605h-3.678c-0.525,0.524-1.126,1.123-2.026,1.123
			c-1.126,0-2.252-0.374-3.453-0.748c-1.426-0.449-3.903-0.898-6.23-0.898c-7.431,0-13.51,4.938-13.51,12.871
			c0,7.483,2.702,11.673,9.457,14.517l5.854,2.395c2.477,1.048,6.455,2.844,6.455,7.109c0,2.993-2.327,5.687-5.479,5.687
			c-5.104,0-8.857-2.469-10.733-5.462c-1.201-1.871-1.952-3.517-2.327-5.538H7.791v16.088h3.753
			c0.675-1.347,1.501-2.844,2.702-2.844c1.201,0,2.552,0.674,4.278,1.497c1.651,0.823,4.204,1.796,7.056,1.796
			c7.656,0,13.51-5.688,13.51-14.143c0-8.979-4.353-13.02-14.186-15.938C19.2,30.47,16.498,29.123,16.573,24.857z M33.01,37.354
			c-2.402-0.599-3.828-0.599-5.179,0c-1.576-0.599-3.227-0.599-5.104,0c4.278,0.898,7.656,1.497,9.833,2.32
			c2.477,3.742,3.077,7.782,1.051,13.619c-0.15-5.687-2.702-9.877-5.404-10.626c-0.525-1.646-1.576-3.517-5.779-5.313
			c-1.501-0.599-3.228-0.599-4.729,0c-1.576-0.599-2.702-0.599-3.678,0c-3.377-2.769-4.353-5.836-4.353-10.401
			c0-7.109,5.629-11.599,12.009-11.599c1.951,0,3.603,0.15,5.029,0.524C28.207,16.327,30.158,17,31.659,17
			c1.126,0,1.876-0.599,2.327-1.122h1.952v11.523h-1.426c-0.976-5.088-5.929-9.952-11.784-9.952c-5.404,0-7.431,3.891-7.431,7.184
			c0,3.966,1.501,6.286,6.23,7.857C26.33,34.136,30.608,35.333,33.01,37.354z M22.728,37.204c-4.804-2.395-6.906-4.49-6.831-7.483
			c-1.952-1.347-2.852-3.592-2.777-7.782c-1.051,2.843-1.876,6.211-1.802,9.054c2.027,2.769,5.179,4.64,11.109,6.211H22.728z"/>
		<path style="fill:#FEB895;" d="M51.246,25.231c0-3.442-1.051-4.49-2.477-4.64l-2.402-0.449v-6.884h20.791l5.554,7.333v5.912
			l-2.327,0.375c-1.351,0.149-2.552,1.721-2.552,5.762v24.693l4.878,6.36v5.688H51.17l-4.804-6.286v-6.884l2.927-0.449
			c1.426-0.299,1.952-2.395,1.952-5.014V25.231z M52.521,51.122c0,3.442-0.601,5.612-2.402,5.986l-2.402,0.375v4.265h18.164v-4.265
			l-2.402-0.375c-1.876-0.374-2.477-2.544-2.477-5.986V25.231c0-3.517,0.901-5.687,2.402-5.986l2.402-0.374v-4.266H47.718v4.266
			l2.402,0.374c1.501,0.299,2.402,2.469,2.402,5.986V51.122z M59.652,37.354c-0.75-0.599-1.801-0.599-2.777,0
			c0.45,0.973,1.276,2.544,2.402,3.667c-1.126,2.469-1.952,5.911-2.477,12.272c-0.525-6.361-1.351-9.803-2.477-12.272
			c1.126-1.123,1.952-2.694,2.327-3.667c-1.051-0.599-2.027-0.599-2.777,0V25.231c0-5.687-1.576-7.109-2.927-7.408l-1.952-0.299
			v-1.646h15.537v1.646l-1.952,0.299c-1.351,0.299-2.927,1.721-2.927,7.408V37.354z M56.875,37.279
			c0.45-2.619,1.276-4.116,2.402-5.238c-1.126-1.796-1.952-4.49-2.477-10.102c-0.525,5.612-1.351,8.306-2.477,10.102
			c1.126,1.122,1.952,2.619,2.327,5.238H56.875z"/>
		<path style="fill:#FEB895;" d="M100.331,69.381l-5.179-6.885l-4.954-13.769v8.306l4.128,5.462v6.885H77.138l-4.804-6.286v-6.884
			l2.927-0.449c1.426-0.299,1.952-2.395,1.952-5.014V25.231c0-3.442-1.051-4.49-2.477-4.64l-2.402-0.449v-6.884h19.215l2.777,3.667
			v-3.667h17.113l5.554,7.333v5.912l-2.327,0.375c-1.351,0.149-2.477,1.721-2.477,5.762v36.741H100.331z M83.293,25.231h0.15
			l13.135,36.517h8.707V25.231c0-3.517,0.9-5.687,2.477-5.986l2.327-0.374v-4.266H95.678v4.266l2.402,0.374
			c1.501,0.299,2.402,2.469,2.402,5.986v16.238h-0.075l-9.908-26.864H73.686v4.266l2.402,0.374c1.501,0.299,2.402,2.469,2.402,5.986
			v25.891c0,3.442-0.601,5.612-2.402,5.986l-2.402,0.375v4.265h13.736v-4.265l-1.651-0.375c-1.876-0.449-2.477-2.544-2.477-5.986
			V25.231z M89.373,15.878l7.881,21.476c-1.426-0.599-2.702-0.599-3.903,0c0.751,0.973,1.876,2.245,3.453,3.667
			c0.15,2.619,0.601,5.836,1.876,12.272c-2.852-6.211-4.804-9.653-6.53-12.272c0.601-1.347,0.976-2.694,0.976-3.667
			c-1.576-0.599-2.777-0.599-3.678,0l-4.503-12.347c-0.45-1.347-0.901-2.17-1.876-2.17c-0.901,0-1.051,1.123-1.051,2.245v12.271
			c-0.676-0.599-1.576-0.599-2.177,0V25.231c0-5.687-1.576-7.109-2.927-7.408l-1.952-0.299v-1.646H89.373z M93.351,37.279
			c0-2.619,0-4.116,0.075-5.687c-2.026-2.395-3.828-5.312-6.38-10.251c1.426,5.014,1.952,8.082,1.501,10.701
			c1.727,1.122,2.927,2.619,4.579,5.238H93.351z M108.812,15.878v1.646l-1.951,0.299c-1.351,0.299-2.927,1.721-2.927,7.408v12.122
			c-0.451-0.599-1.576-0.599-2.102,0V25.231c0-5.687-1.576-7.109-2.927-7.408l-1.952-0.299v-1.646H108.812z"/>
		<path style="fill:#FEB895;" d="M121.568,25.231c0-3.442-1.051-4.49-2.477-4.64l-2.402-0.449v-6.884h20.791l5.554,7.333v5.912
			l-2.327,0.375c-1.351,0.149-2.552,1.721-2.552,5.762v24.693l4.878,6.36v5.688h-21.542l-4.804-6.286v-6.884l2.927-0.449
			c1.426-0.299,1.952-2.395,1.952-5.014V25.231z M122.844,51.122c0,3.442-0.601,5.612-2.402,5.986l-2.402,0.375v4.265h18.164v-4.265
			l-2.402-0.375c-1.876-0.374-2.477-2.544-2.477-5.986V25.231c0-3.517,0.901-5.687,2.402-5.986l2.402-0.374v-4.266h-18.089v4.266
			l2.402,0.374c1.501,0.299,2.402,2.469,2.402,5.986V51.122z M129.975,37.354c-0.75-0.599-1.801-0.599-2.777,0
			c0.45,0.973,1.276,2.544,2.402,3.667c-1.126,2.469-1.952,5.911-2.477,12.272c-0.525-6.361-1.351-9.803-2.477-12.272
			c1.126-1.123,1.952-2.694,2.327-3.667c-1.051-0.599-2.027-0.599-2.777,0V25.231c0-5.687-1.576-7.109-2.927-7.408l-1.952-0.299
			v-1.646h15.537v1.646l-1.952,0.299c-1.351,0.299-2.927,1.721-2.927,7.408V37.354z M127.198,37.279
			c0.45-2.619,1.276-4.116,2.402-5.238c-1.126-1.796-1.952-4.49-2.477-10.102c-0.525,5.612-1.351,8.306-2.477,10.102
			c1.126,1.122,1.952,2.619,2.327,5.238H127.198z"/>
		<path style="fill:#FEB895;" d="M143.783,27.252c0-9.129,6.98-14.442,15.312-14.442c2.176,0,4.278,0.3,5.779,0.674
			s2.552,0.748,3.303,0.748c0.825,0,1.351-0.599,1.726-1.122h5.554l5.554,7.482v15.714h-4.954l-6.755-6.286
			c-0.6-3.292-1.876-6.585-4.954-6.585c-2.702,0-3.978,1.571-3.978,3.816c0,1.945,0.675,3.218,5.704,4.938
			c10.583,3.667,16.738,10.626,16.738,21.925c0,9.429-7.206,15.714-14.711,15.714c-3.152,0-6.155-0.749-7.656-1.796
			c-1.201-0.823-2.477-1.497-3.453-1.497c-1.051,0-1.726,2.021-2.176,2.844h-6.53l-5.029-6.51V44.388h6.605
			c1.276,2.694,3.303,5.912,4.503,7.333c1.426,1.796,3.753,3.592,6.605,3.592c1.576,0,3.752-0.897,3.752-2.843
			c0-2.769-6.229-4.116-9.232-5.762C150.238,43.789,143.783,37.429,143.783,27.252z M153.466,24.857
			c0-2.918,1.951-6.136,6.155-6.136c3.227,0,6.905,2.469,8.256,4.19c1.125,1.422,2.026,3.517,2.552,5.762h3.678V14.605h-3.678
			c-0.525,0.524-1.126,1.123-2.026,1.123c-1.126,0-2.252-0.374-3.453-0.748c-1.426-0.449-3.903-0.898-6.23-0.898
			c-7.431,0-13.51,4.938-13.51,12.871c0,7.483,2.702,11.673,9.457,14.517l5.854,2.395c2.477,1.048,6.455,2.844,6.455,7.109
			c0,2.993-2.327,5.687-5.479,5.687c-5.104,0-8.857-2.469-10.733-5.462c-1.201-1.871-1.952-3.517-2.327-5.538h-3.752v16.088h3.752
			c0.676-1.347,1.501-2.844,2.702-2.844c1.201,0,2.552,0.674,4.278,1.497c1.651,0.823,4.204,1.796,7.056,1.796
			c7.656,0,13.51-5.688,13.51-14.143c0-8.979-4.353-13.02-14.186-15.938C156.093,30.47,153.391,29.123,153.466,24.857z
			 M169.903,37.354c-2.402-0.599-3.828-0.599-5.179,0c-1.576-0.599-3.227-0.599-5.104,0c4.278,0.898,7.656,1.497,9.833,2.32
			c2.477,3.742,3.077,7.782,1.051,13.619c-0.15-5.687-2.702-9.877-5.404-10.626c-0.525-1.646-1.576-3.517-5.779-5.313
			c-1.501-0.599-3.228-0.599-4.729,0c-1.576-0.599-2.702-0.599-3.678,0c-3.377-2.769-4.353-5.836-4.353-10.401
			c0-7.109,5.629-11.599,12.009-11.599c1.951,0,3.603,0.15,5.029,0.524C165.1,16.327,167.051,17,168.552,17
			c1.126,0,1.876-0.599,2.327-1.122h1.952v11.523h-1.426c-0.976-5.088-5.929-9.952-11.784-9.952c-5.404,0-7.431,3.891-7.431,7.184
			c0,3.966,1.501,6.286,6.23,7.857C163.223,34.136,167.501,35.333,169.903,37.354z M159.621,37.204
			c-4.804-2.395-6.906-4.49-6.831-7.483c-1.951-1.347-2.852-3.592-2.777-7.782c-1.051,2.843-1.876,6.211-1.802,9.054
			c2.027,2.769,5.179,4.64,11.109,6.211H159.621z"/>
		<path style="fill:#FEB895;" d="M223.942,20.592v20.429h-7.206l-4.729-6.286v22.598l4.804,6.36v5.688h-21.467l-4.804-6.286v-6.884
			l2.852-0.449c1.501-0.299,1.952-2.395,1.952-5.014v-9.728h-4.954l-6.98-6.286V13.259h34.977L223.942,20.592z M184.762,33.388
			h4.428v-4.19c0-4.415,1.126-9.279,4.354-9.279c2.852,0,3.152,4.415,3.152,7.258v23.945c0,3.442-0.601,5.612-2.477,5.986
			l-2.402,0.375v4.265h18.164v-4.265l-2.327-0.375c-1.952-0.374-2.552-2.544-2.552-5.986V27.177c0-2.843,0.3-7.258,3.153-7.258
			c3.227,0,4.353,4.864,4.353,9.279v4.19h4.429V14.605h-32.275V33.388z M215.76,15.878v16.238h-1.876v-2.619
			c0-4.714-0.976-10.85-5.629-10.85c-3.228,0-4.429,2.694-4.429,7.184v11.523c-0.675-0.599-1.726-0.599-2.777,0
			c0.45,0.973,1.276,2.544,2.327,3.667c-1.051,2.469-1.876,5.911-2.477,12.272c-0.525-6.361-1.351-9.803-2.402-12.272
			c1.051-1.123,1.876-2.694,2.327-3.667c-0.976-0.599-2.026-0.599-2.852,0V25.83c0-4.49-1.201-7.184-4.428-7.184
			c-4.654,0-5.629,6.136-5.629,10.85v2.619h-1.876V15.878H215.76z M201.049,37.279c0.45-2.619,1.276-4.116,2.251-5.238
			c-0.976-1.796-1.801-4.49-2.402-10.102c-0.525,5.612-1.351,8.306-2.402,10.102c1.051,1.122,1.876,2.619,2.327,5.238H201.049z"/>
		<path style="fill:#FEB895;" d="M229.267,25.231c0-3.442-1.051-4.49-2.477-4.64l-2.402-0.449v-6.884h23.193
			c13.661,0,20.341,12.197,20.341,20.877c0,4.864-2.402,8.456-5.554,10.251h5.179l5.78,7.258v4.415c0,9.728-3.378,13.32-9.458,13.32
			c-4.203,0-8.782-2.769-11.484-8.531c-2.251-4.714-2.477-11.449-3.002-12.945h-3.527v8.755l5.179,6.36v6.361h-21.842l-4.804-6.286
			v-6.884l2.927-0.449c1.426-0.299,1.952-2.395,1.952-5.014V25.231z M246.08,41.245c3.453,0,4.653,4.714,5.104,9.054
			c1.051,9.129,3.228,11.973,8.631,11.973c4.429,0,7.281-2.694,7.281-13.095v-3.442h-4.354v3.442c0,1.646-0.3,4.116-1.426,4.116
			c-1.201,0-1.501-2.021-1.876-6.286c-0.375-4.116-1.351-6.959-3.903-8.83v-0.149c2.853-1.571,5.479-4.939,5.479-10.925
			c0-7.708-4.503-12.497-14.111-12.497h-21.167v4.266l2.402,0.374c1.501,0.299,2.402,2.469,2.402,5.986v25.891
			c0,3.442-0.601,5.612-2.402,5.986l-2.402,0.375v4.265h18.54v-4.265l-1.727-0.225c-2.702-0.299-3.528-2.694-3.528-6.136v-9.877
			H246.08z M246.83,15.878c7.806,0,12.91,2.769,12.91,11.224c0,5.388-2.252,8.605-5.404,10.251c-0.601-0.599-1.651-0.599-3.002,0
			c1.727,1.197,2.627,2.096,3.828,3.667c0.9,2.469,1.276,5.911,1.126,12.272c-0.976-6.51-3.528-10.102-6.005-12.272
			c0.676-1.197,0.976-2.395,0.75-3.667c-1.051-0.599-2.102-0.599-3.527,0c-1.351-0.599-2.777-0.599-4.128,0
			c-1.426-0.599-2.927-0.599-4.354,0c-1.426-0.599-2.777-0.599-4.203,0c0.375,0.973,1.351,2.544,2.402,3.667
			c-1.126,2.469-1.952,5.911-2.552,12.272c-0.525-6.361-1.351-9.803-2.327-12.272c0.976-1.123,1.802-2.694,2.177-3.667
			c-1.201-0.599-1.951-0.599-2.627,0V25.231c0-5.687-1.576-7.109-2.927-7.408l-1.952-0.299v-1.646H246.83z M234.821,37.279
			c0.375-2.619,1.276-4.116,2.402-5.238c-1.126-1.796-2.026-4.49-2.552-10.102c-0.375,5.612-1.201,8.306-2.327,10.102
			c0.976,1.122,1.802,2.619,2.177,5.238H234.821z M241.651,19.844c-3.077,0-3.978,1.796-3.978,5.762v9.877h9.157
			c2.777,0,6.53-2.395,6.53-7.708c0-5.013-2.627-7.932-6.68-7.932H241.651z M246.905,21.116c2.477,0,5.104,1.946,5.104,6.66
			c0,4.041-2.627,6.361-5.104,6.361h-7.881v-8.531c0-3.592,0.976-4.49,2.552-4.49H246.905z M247.28,28.749
			c-0.826,0-1.426,0.823-1.426,2.32v1.871h1.276c1.276,0,3.077-1.422,3.077-2.844c0-0.748-0.6-1.347-1.201-1.347H247.28z
			 M251.333,37.279c2.477-1.646,4.579-3.068,6.755-5.238c0-2.245-0.601-5.687-2.702-10.102c1.651,5.238-0.075,8.381-1.426,9.803
			c-0.225,1.945-1.501,4.19-2.927,5.537H251.333z"/>
		<path style="fill:#FEB895;" d="M314.003,48.354c0,14.367-7.806,21.476-18.239,21.476c-10.733,0-21.016-7.932-21.016-24.319V31.143
			c0-11.225,8.106-18.333,16.888-18.333c14.336,0,22.367,12.721,22.367,21.775V48.354z M307.173,30.993
			c-0.075-9.354-6.154-16.911-15.537-16.911s-15.537,8.082-15.537,16.911l-0.075,14.292c-0.075,10.177,6.23,16.912,15.612,16.912
			c9.457,0,15.612-8.007,15.537-17.436V30.993z M284.881,37.354c-0.601-0.599-2.102-0.599-3.603,0
			c0.375,0.973,1.276,2.47,2.327,3.667c-1.051,2.469-2.327,7.184-1.351,12.272c-1.952-5.313-3.002-9.728-3.528-12.272
			c1.051-1.197,1.801-2.694,2.327-3.667c-1.426-0.599-3.002-0.599-3.678,0v-6.36c0-7.632,5.104-15.639,14.261-15.639
			c9.082,0,14.186,8.007,14.186,15.639v6.36c-0.676-0.599-2.177-0.599-3.678,0c0.525,0.973,1.276,2.47,2.327,3.667
			c-0.451,2.769-1.051,6.884-3.453,12.272c0.525-5.388-0.3-9.803-1.426-12.272c1.126-1.197,1.952-2.694,2.327-3.667
			c-1.501-0.599-3.002-0.599-3.603,0V27.252c0-7.259-2.853-9.653-6.68-9.653c-3.903,0-6.755,2.395-6.755,9.653V37.354z
			 M281.278,37.204c0.375-2.619,1.276-4.041,2.327-5.238c-1.351-2.918-1.351-5.986-0.75-10.027
			c-2.102,3.592-3.228,6.51-4.128,10.027c1.051,1.197,1.876,2.619,2.327,5.238H281.278z M286.307,27.252
			c0-4.19,0.826-8.306,5.329-8.306c4.428,0,5.329,4.116,5.329,8.306v19.904c0,5.088-0.901,10.252-5.329,10.252
			c-4.503,0-5.329-4.789-5.329-10.252V27.252z M295.689,29.871c0-2.993-0.15-5.089-1.201-5.089c-0.901,0-1.426,1.497-1.426,5.463
			v17.66c0,2.918,0.225,6.286,0.976,6.286c1.125,0,1.651-3.143,1.651-7.184V29.871z M302.144,37.204
			c0.451-2.619,1.276-4.041,2.327-5.238c-0.976-3.442-1.952-6.585-4.128-10.027c0.601,3.292,0.601,7.109-0.75,10.027
			c1.126,1.197,1.952,2.619,2.327,5.238H302.144z"/>
		<path style="fill:#FEB895;" d="M317.002,30.993c0-10.102,7.581-18.184,16.438-18.184c2.552,0,4.504,0.524,6.305,1.272
			c1.426,0.673,2.777,1.272,3.228,1.272c0.45,0,0.525-0.898,0.525-2.245h6.905l6.305,7.108v24.021H346.5l-5.629-6.286
			c-0.226-8.456-1.876-13.17-3.378-13.17c-1.651,0-2.177,2.47-2.177,5.463v20.877c0,2.17,0.751,3.892,2.102,3.892
			c1.952,0,3.153-3.517,3.453-10.102h9.982l6.305,7.034c-1.651,14.891-10.433,17.884-19.14,17.884
			c-10.733,0-21.016-10.551-21.016-26.34V30.993z M349.877,36.605V14.381h-5.104c0,1.945-0.45,2.395-1.201,2.395
			c-0.9,0-2.402-0.599-3.603-1.272c-1.952-0.973-3.903-1.422-6.08-1.422c-9.458,0-15.537,9.129-15.537,16.986V43.49
			c0,9.129,4.503,18.708,16.363,18.708c10.883,0,15.162-8.007,15.162-16.014h-7.731c0,8.306-2.702,11.225-7.206,11.225
			c-4.429,0-6.455-4.34-6.455-10.252V27.252c0-4.19,0.901-8.306,5.404-8.306c5.854,0,8.256,10.251,8.256,17.66H349.877z
			 M327.135,36.082c-0.901-0.524-2.327-0.524-3.603,0c0.375,0.973,1.276,2.469,2.327,3.667c-1.051,2.544-1.952,5.912-1.426,12.197
			c-2.251-5.014-2.927-8.456-3.453-12.197c1.051-1.197,1.876-2.693,2.327-3.667c-1.426-0.524-2.777-0.524-3.678,0v-4.116
			c0-8.306,5.93-16.612,14.261-16.612c2.251,0,4.128,0.673,5.554,1.272c1.801,0.898,3.303,1.497,4.729,1.497
			c1.051,0,1.952-0.748,1.952-2.395h2.402v19.605h-5.029c-0.525-9.354-3.453-17.735-9.607-17.735c-5.705,0-6.755,4.864-6.755,9.653
			V36.082z M323.532,35.633c0.375-1.048,1.051-2.47,2.327-3.667c-1.201-2.918-1.276-5.986-0.75-10.102
			c-2.102,3.517-3.453,7.258-4.128,10.102c1.126,1.197,2.026,2.619,2.327,3.667H323.532z"/>
		<path style="fill:#FEB895;" d="M380.047,14.905v-1.646h17.038l5.629,7.333v5.912l-2.401,0.375
			c-1.352,0.149-2.552,1.721-2.552,5.762v21.326c0,11.149-6.906,15.938-15.462,15.938c-10.358,0-19.515-7.558-19.515-26.938V25.231
			c0-3.442-1.051-4.49-2.477-4.64l-2.402-0.449v-6.884h20.791L380.047,14.905z M359.256,18.871l2.402,0.374
			c1.501,0.299,2.402,2.469,2.402,5.986v17.734c0,13.095,3.077,19.231,14.937,19.231c7.731,0,11.934-3.816,11.934-17.884V25.231
			c0-2.844,0.45-5.687,2.477-5.986l2.402-0.374v-4.266h-14.486v4.266l2.327,0.374c2.102,0.299,2.552,3.143,2.552,5.986v20.354
			c0,9.429-2.777,11.823-6.68,11.823c-6.08,0-6.98-4.49-6.98-16.238V25.231c0-3.517,0.9-5.687,2.402-5.986l2.402-0.374v-4.266
			h-18.089V18.871z M376.069,15.878v1.646l-1.952,0.299c-1.351,0.299-2.927,1.721-2.927,7.408v12.122
			c-0.3-0.599-1.501-0.599-2.777,0c0.451,0.973,1.276,2.47,2.402,3.667c-1.125,2.469-1.951,5.911-1.501,12.197
			c-1.727-6.286-2.702-9.728-3.453-12.197c1.126-1.197,1.952-2.694,2.327-3.667c-1.201-0.599-2.402-0.599-2.777,0V25.231
			c0-5.687-1.577-7.109-2.927-7.408l-1.952-0.299v-1.646H376.069z M368.413,37.204c0.451-2.619,1.276-4.041,2.402-5.238
			c-1.125-1.796-1.951-4.489-2.477-10.102c-0.525,5.612-1.351,8.306-2.477,10.102c1.126,1.197,1.952,2.619,2.327,5.238H368.413z
			 M379.371,45.734c0,7.857,1.351,8.605,3.152,8.605c1.201,0,2.327-2.993,2.327-8.904V26.279l-2.702,0.075
			c-2.027,0.374-2.777,2.245-2.777,5.836V45.734z M394.533,15.878v1.646l-1.201,0.299c-3.228,0.674-3.753,3.292-3.753,7.408v12.122
			c-0.601-0.599-1.426-0.599-2.102,0V25.231c0-4.116-0.676-6.66-3.828-7.408l-0.976-0.299v-1.646H394.533z"/>
		<path style="fill:#FEB895;" d="M423.652,51.347c0,2.021,1.501,2.544,2.702,2.544c1.426,0,2.777-1.796,2.777-4.565v-4.19h7.28
			l5.629,7.558v16.687h-35.052l-4.804-6.286v-6.884l2.928-0.449c1.426-0.299,1.951-2.395,1.951-5.014V25.231
			c0-3.442-1.051-4.49-2.477-4.64l-2.402-0.449v-6.884h20.791l5.555,7.333v5.912l-2.327,0.375c-1.351,0.149-2.552,1.721-2.552,5.762
			V51.347z M408.341,51.122c0,3.442-0.601,5.612-2.402,5.986l-2.401,0.375v4.265h31.674v-15.34h-4.729v4.115
			c0,3.592-1.876,5.313-7.131,5.313c-5.479,0-6.529-2.395-6.529-6.66V25.231c0-3.517,0.9-5.687,2.401-5.986l2.402-0.374v-4.266
			h-18.089v4.266l2.401,0.374c1.501,0.299,2.402,2.469,2.402,5.986V51.122z M409.691,25.231c0-5.687-1.576-7.109-2.928-7.408
			l-1.951-0.299v-1.646h15.537v1.646l-1.951,0.299c-1.352,0.299-2.928,1.721-2.928,7.408v12.122c-0.75-0.599-1.801-0.599-2.777,0
			c0.451,0.973,1.276,2.544,2.402,3.667c-1.126,2.469-1.951,5.911-2.477,12.272c-0.525-6.361-1.352-9.803-2.478-12.272
			c1.126-1.123,1.952-2.694,2.327-3.667c-1.051-0.599-2.026-0.599-2.777,0V25.231z M412.693,37.279
			c0.451-2.619,1.276-4.116,2.402-5.238c-1.126-1.796-1.951-4.49-2.477-10.102c-0.525,5.612-1.352,8.306-2.478,10.102
			c1.126,1.122,1.952,2.619,2.327,5.238H412.693z"/>
		<path style="fill:#FEB895;" d="M466.433,13.259l8.406,8.755l8.031,30.83c0.676,2.395,2.402,5.837,4.804,7.333v9.204h-19.439
			l-1.951-2.619v2.619h-19.065l-5.179-6.885V56.36l1.951-0.599c1.877-0.599,3.228-3.068,4.954-9.354l8.932-33.149H466.433z
			 M465.382,46.483l0.525,2.245c1.201,5.688,0.301,7.633-1.651,8.231l-1.951,0.524v4.265h18.464v-4.265l-2.102-0.823
			c-1.275-0.449-2.552-2.619-3.902-7.857l-8.857-34.197h-6.98l-8.632,31.803c-2.102,7.707-3.377,9.952-5.254,10.551l-1.651,0.524
			v4.265h15.913v-4.265l-1.952-0.524c-1.651-0.599-2.777-3.816-1.651-8.231l0.601-2.245H465.382z M460.053,15.878h4.729l5.63,21.476
			c-0.901-0.599-1.802-0.599-2.702,0c0.45,0.973,1.651,2.544,2.927,3.667c-0.375,3.068-0.525,6.211,0.376,12.272
			c-1.952-6.061-3.152-8.83-5.18-12.272c0.751-1.123,1.576-2.694,1.651-3.667c-1.126-0.599-2.102-0.599-2.702,0l-3.228-14.891
			h-0.149l-4.054,14.891c-0.9-0.599-1.951-0.599-3.077,0L460.053,15.878z M458.026,39.823l3.152-11.449h0.3l2.478,11.449H458.026z
			 M467.709,37.279c0-2.619,0.3-4.116,0.75-5.238c-1.351-1.796-2.477-4.49-4.503-10.102c0.676,5.612,0.601,8.306,0.225,10.102
			c1.126,1.122,2.177,2.619,3.303,5.238H467.709z"/>
		<path style="fill:#FEB895;" d="M492.249,25.231c0-3.442-1.051-4.49-2.477-4.64l-2.402-0.449v-6.884h23.193
			c13.66,0,20.341,12.197,20.341,20.877c0,4.864-2.402,8.456-5.555,10.251h5.179l5.779,7.258v4.415c0,9.728-3.377,13.32-9.457,13.32
			c-4.203,0-8.781-2.769-11.483-8.531c-2.252-4.714-2.478-11.449-3.003-12.945h-3.527v8.755l5.179,6.36v6.361h-21.842l-4.804-6.286
			v-6.884l2.928-0.449c1.426-0.299,1.951-2.395,1.951-5.014V25.231z M509.062,41.245c3.453,0,4.654,4.714,5.104,9.054
			c1.051,9.129,3.228,11.973,8.632,11.973c4.428,0,7.28-2.694,7.28-13.095v-3.442h-4.354v3.442c0,1.646-0.3,4.116-1.426,4.116
			c-1.201,0-1.501-2.021-1.877-6.286c-0.375-4.116-1.351-6.959-3.902-8.83v-0.149c2.852-1.571,5.479-4.939,5.479-10.925
			c0-7.708-4.503-12.497-14.11-12.497h-21.166v4.266l2.401,0.374c1.501,0.299,2.402,2.469,2.402,5.986v25.891
			c0,3.442-0.601,5.612-2.402,5.986l-2.401,0.375v4.265h18.539v-4.265l-1.727-0.225c-2.702-0.299-3.527-2.694-3.527-6.136v-9.877
			H509.062z M509.812,15.878c7.806,0,12.91,2.769,12.91,11.224c0,5.388-2.252,8.605-5.404,10.251c-0.601-0.599-1.651-0.599-3.002,0
			c1.726,1.197,2.627,2.096,3.827,3.667c0.901,2.469,1.276,5.911,1.126,12.272c-0.976-6.51-3.527-10.102-6.004-12.272
			c0.675-1.197,0.976-2.395,0.75-3.667c-1.051-0.599-2.102-0.599-3.527,0c-1.352-0.599-2.777-0.599-4.129,0
			c-1.426-0.599-2.927-0.599-4.353,0c-1.427-0.599-2.777-0.599-4.203,0c0.375,0.973,1.351,2.544,2.401,3.667
			c-1.126,2.469-1.951,5.911-2.552,12.272c-0.525-6.361-1.352-9.803-2.327-12.272c0.976-1.123,1.802-2.694,2.177-3.667
			c-1.201-0.599-1.951-0.599-2.627,0V25.231c0-5.687-1.576-7.109-2.927-7.408l-1.952-0.299v-1.646H509.812z M497.804,37.279
			c0.375-2.619,1.275-4.116,2.401-5.238c-1.126-1.796-2.026-4.49-2.552-10.102c-0.375,5.612-1.201,8.306-2.327,10.102
			c0.976,1.122,1.802,2.619,2.177,5.238H497.804z M504.634,19.844c-3.077,0-3.979,1.796-3.979,5.762v9.877h9.157
			c2.777,0,6.53-2.395,6.53-7.708c0-5.013-2.627-7.932-6.681-7.932H504.634z M509.888,21.116c2.477,0,5.104,1.946,5.104,6.66
			c0,4.041-2.627,6.361-5.104,6.361h-7.881v-8.531c0-3.592,0.976-4.49,2.552-4.49H509.888z M510.263,28.749
			c-0.825,0-1.426,0.823-1.426,2.32v1.871h1.275c1.276,0,3.078-1.422,3.078-2.844c0-0.748-0.601-1.347-1.201-1.347H510.263z
			 M514.316,37.279c2.477-1.646,4.578-3.068,6.755-5.238c0-2.245-0.601-5.687-2.702-10.102c1.651,5.238-0.075,8.381-1.426,9.803
			c-0.226,1.945-1.502,4.19-2.928,5.537H514.316z"/>
	</g>
</g>
<g id="sinistrocular" style="opacity:0.749;">
	<g>
		<path style="fill:#A0D1F0;" d="M3.753,23.343c0-9.129,6.98-14.442,15.312-14.442c2.176,0,4.278,0.3,5.779,0.674
			s2.552,0.748,3.303,0.748c0.825,0,1.351-0.599,1.726-1.122h5.554l5.554,7.482v15.714h-4.954l-6.755-6.286
			c-0.6-3.292-1.876-6.585-4.954-6.585c-2.702,0-3.978,1.571-3.978,3.816c0,1.945,0.675,3.218,5.704,4.938
			c10.583,3.667,16.738,10.626,16.738,21.925c0,9.429-7.206,15.714-14.711,15.714c-3.152,0-6.155-0.749-7.656-1.796
			c-1.201-0.823-2.477-1.497-3.453-1.497c-1.051,0-1.726,2.021-2.176,2.844h-6.53l-5.029-6.51V40.479h6.605
			c1.276,2.694,3.303,5.912,4.503,7.333c1.426,1.796,3.753,3.592,6.605,3.592c1.576,0,3.752-0.897,3.752-2.843
			c0-2.769-6.229-4.116-9.232-5.762C10.208,39.88,3.753,33.52,3.753,23.343z M13.436,20.948c0-2.918,1.951-6.136,6.155-6.136
			c3.227,0,6.905,2.469,8.256,4.19c1.125,1.422,2.026,3.517,2.552,5.762h3.678V10.696h-3.678c-0.525,0.524-1.126,1.123-2.026,1.123
			c-1.126,0-2.252-0.374-3.453-0.748c-1.426-0.449-3.903-0.898-6.23-0.898c-7.431,0-13.51,4.938-13.51,12.871
			c0,7.483,2.702,11.673,9.457,14.517l5.854,2.395c2.477,1.048,6.455,2.844,6.455,7.109c0,2.993-2.327,5.687-5.479,5.687
			c-5.104,0-8.857-2.469-10.733-5.462c-1.201-1.871-1.952-3.517-2.327-5.538H4.654v16.088h3.752
			c0.676-1.347,1.501-2.844,2.702-2.844c1.201,0,2.552,0.674,4.278,1.497c1.651,0.823,4.204,1.796,7.056,1.796
			c7.656,0,13.51-5.688,13.51-14.143c0-8.979-4.353-13.02-14.186-15.938C16.062,26.561,13.36,25.213,13.436,20.948z M29.873,33.444
			c-2.402-0.599-3.828-0.599-5.179,0c-1.576-0.599-3.227-0.599-5.104,0c4.278,0.898,7.656,1.497,9.833,2.32
			c2.477,3.742,3.077,7.782,1.051,13.619c-0.15-5.687-2.702-9.877-5.404-10.626c-0.525-1.646-1.576-3.517-5.779-5.313
			c-1.501-0.599-3.228-0.599-4.729,0c-1.576-0.599-2.702-0.599-3.678,0C7.506,30.676,6.53,27.608,6.53,23.043
			c0-7.109,5.629-11.599,12.009-11.599c1.951,0,3.603,0.15,5.029,0.524c1.501,0.449,3.453,1.122,4.954,1.122
			c1.126,0,1.876-0.599,2.327-1.122H32.8v11.523h-1.426c-0.976-5.088-5.929-9.952-11.784-9.952c-5.404,0-7.431,3.891-7.431,7.184
			c0,3.966,1.501,6.286,6.23,7.857C23.193,30.227,27.471,31.424,29.873,33.444z M19.59,33.295c-4.804-2.395-6.906-4.49-6.831-7.483
			c-1.951-1.347-2.852-3.592-2.777-7.782c-1.051,2.843-1.876,6.211-1.802,9.054c2.027,2.769,5.179,4.64,11.109,6.211H19.59z"/>
		<path style="fill:#A0D1F0;" d="M48.108,21.322c0-3.442-1.051-4.49-2.477-4.64l-2.402-0.449V9.35h20.791l5.554,7.333v5.912
			l-2.327,0.375c-1.351,0.149-2.552,1.721-2.552,5.762v24.693l4.878,6.36v5.688H48.033l-4.804-6.286v-6.884l2.927-0.449
			c1.426-0.299,1.952-2.395,1.952-5.014V21.322z M49.384,47.213c0,3.442-0.601,5.612-2.402,5.986l-2.402,0.375v4.265h18.164v-4.265
			l-2.402-0.375c-1.876-0.374-2.477-2.544-2.477-5.986V21.322c0-3.517,0.901-5.687,2.402-5.986l2.402-0.374v-4.266H44.581v4.266
			l2.402,0.374c1.501,0.299,2.402,2.469,2.402,5.986V47.213z M56.515,33.444c-0.75-0.599-1.801-0.599-2.777,0
			c0.45,0.973,1.276,2.544,2.402,3.667c-1.126,2.469-1.952,5.911-2.477,12.272c-0.525-6.361-1.351-9.803-2.477-12.272
			c1.126-1.123,1.952-2.694,2.327-3.667c-1.051-0.599-2.027-0.599-2.777,0V21.322c0-5.687-1.576-7.109-2.927-7.408l-1.952-0.299
			v-1.646h15.537v1.646l-1.952,0.299c-1.351,0.299-2.927,1.721-2.927,7.408V33.444z M53.738,33.37
			c0.45-2.619,1.276-4.116,2.402-5.238c-1.126-1.796-1.952-4.49-2.477-10.102c-0.525,5.612-1.351,8.306-2.477,10.102
			c1.126,1.122,1.952,2.619,2.327,5.238H53.738z"/>
		<path style="fill:#A0D1F0;" d="M97.194,65.472l-5.179-6.885l-4.954-13.769v8.306l4.128,5.462v6.885H74.001l-4.804-6.286v-6.884
			l2.927-0.449c1.426-0.299,1.952-2.395,1.952-5.014V21.322c0-3.442-1.051-4.49-2.477-4.64l-2.402-0.449V9.35h19.215l2.777,3.667
			V9.35h17.113l5.554,7.333v5.912l-2.327,0.375c-1.351,0.149-2.477,1.721-2.477,5.762v36.741H97.194z M80.156,21.322h0.15
			l13.135,36.517h8.707V21.322c0-3.517,0.9-5.687,2.477-5.986l2.327-0.374v-4.266H92.541v4.266l2.402,0.374
			c1.501,0.299,2.402,2.469,2.402,5.986V37.56h-0.075l-9.908-26.864H70.548v4.266l2.402,0.374c1.501,0.299,2.402,2.469,2.402,5.986
			v25.891c0,3.442-0.601,5.612-2.402,5.986l-2.402,0.375v4.265h13.736v-4.265l-1.651-0.375c-1.876-0.449-2.477-2.544-2.477-5.986
			V21.322z M86.235,11.969l7.881,21.476c-1.426-0.599-2.702-0.599-3.903,0c0.751,0.973,1.876,2.245,3.453,3.667
			c0.15,2.619,0.601,5.836,1.876,12.272c-2.852-6.211-4.804-9.653-6.53-12.272c0.601-1.347,0.976-2.694,0.976-3.667
			c-1.576-0.599-2.777-0.599-3.678,0l-4.503-12.347c-0.45-1.347-0.901-2.17-1.876-2.17c-0.901,0-1.051,1.123-1.051,2.245v12.271
			c-0.676-0.599-1.576-0.599-2.177,0V21.322c0-5.687-1.576-7.109-2.927-7.408l-1.952-0.299v-1.646H86.235z M90.213,33.37
			c0-2.619,0-4.116,0.075-5.687c-2.026-2.395-3.828-5.312-6.38-10.251c1.426,5.014,1.952,8.082,1.501,10.701
			c1.727,1.122,2.927,2.619,4.579,5.238H90.213z M105.675,11.969v1.646l-1.951,0.299c-1.351,0.299-2.927,1.721-2.927,7.408v12.122
			c-0.451-0.599-1.576-0.599-2.102,0V21.322c0-5.687-1.576-7.109-2.927-7.408l-1.952-0.299v-1.646H105.675z"/>
		<path style="fill:#A0D1F0;" d="M118.431,21.322c0-3.442-1.051-4.49-2.477-4.64l-2.402-0.449V9.35h20.791l5.554,7.333v5.912
			l-2.327,0.375c-1.351,0.149-2.552,1.721-2.552,5.762v24.693l4.878,6.36v5.688h-21.542l-4.804-6.286v-6.884l2.927-0.449
			c1.426-0.299,1.952-2.395,1.952-5.014V21.322z M119.707,47.213c0,3.442-0.601,5.612-2.402,5.986l-2.402,0.375v4.265h18.164v-4.265
			l-2.402-0.375c-1.876-0.374-2.477-2.544-2.477-5.986V21.322c0-3.517,0.901-5.687,2.402-5.986l2.402-0.374v-4.266h-18.089v4.266
			l2.402,0.374c1.501,0.299,2.402,2.469,2.402,5.986V47.213z M126.837,33.444c-0.75-0.599-1.801-0.599-2.777,0
			c0.45,0.973,1.276,2.544,2.402,3.667c-1.126,2.469-1.952,5.911-2.477,12.272c-0.525-6.361-1.351-9.803-2.477-12.272
			c1.126-1.123,1.952-2.694,2.327-3.667c-1.051-0.599-2.027-0.599-2.777,0V21.322c0-5.687-1.576-7.109-2.927-7.408l-1.952-0.299
			v-1.646h15.537v1.646l-1.952,0.299c-1.351,0.299-2.927,1.721-2.927,7.408V33.444z M124.061,33.37
			c0.45-2.619,1.276-4.116,2.402-5.238c-1.126-1.796-1.952-4.49-2.477-10.102c-0.525,5.612-1.351,8.306-2.477,10.102
			c1.126,1.122,1.952,2.619,2.327,5.238H124.061z"/>
		<path style="fill:#A0D1F0;" d="M140.646,23.343c0-9.129,6.98-14.442,15.312-14.442c2.176,0,4.278,0.3,5.779,0.674
			s2.552,0.748,3.303,0.748c0.825,0,1.351-0.599,1.726-1.122h5.554l5.554,7.482v15.714h-4.954l-6.755-6.286
			c-0.6-3.292-1.876-6.585-4.954-6.585c-2.702,0-3.978,1.571-3.978,3.816c0,1.945,0.675,3.218,5.704,4.938
			c10.583,3.667,16.738,10.626,16.738,21.925c0,9.429-7.206,15.714-14.711,15.714c-3.152,0-6.155-0.749-7.656-1.796
			c-1.201-0.823-2.477-1.497-3.453-1.497c-1.051,0-1.726,2.021-2.176,2.844h-6.53l-5.029-6.51V40.479h6.605
			c1.276,2.694,3.303,5.912,4.503,7.333c1.426,1.796,3.753,3.592,6.605,3.592c1.576,0,3.752-0.897,3.752-2.843
			c0-2.769-6.229-4.116-9.232-5.762C147.101,39.88,140.646,33.52,140.646,23.343z M150.329,20.948c0-2.918,1.951-6.136,6.155-6.136
			c3.228,0,6.905,2.469,8.256,4.19c1.125,1.422,2.026,3.517,2.552,5.762h3.678V10.696h-3.678c-0.525,0.524-1.126,1.123-2.026,1.123
			c-1.126,0-2.252-0.374-3.453-0.748c-1.426-0.449-3.903-0.898-6.23-0.898c-7.431,0-13.51,4.938-13.51,12.871
			c0,7.483,2.702,11.673,9.457,14.517l5.854,2.395c2.477,1.048,6.455,2.844,6.455,7.109c0,2.993-2.327,5.687-5.479,5.687
			c-5.104,0-8.857-2.469-10.733-5.462c-1.201-1.871-1.952-3.517-2.327-5.538h-3.753v16.088h3.753
			c0.675-1.347,1.501-2.844,2.702-2.844c1.201,0,2.552,0.674,4.278,1.497c1.651,0.823,4.204,1.796,7.056,1.796
			c7.656,0,13.51-5.688,13.51-14.143c0-8.979-4.353-13.02-14.186-15.938C152.956,26.561,150.253,25.213,150.329,20.948z
			 M166.766,33.444c-2.402-0.599-3.828-0.599-5.179,0c-1.576-0.599-3.227-0.599-5.104,0c4.278,0.898,7.656,1.497,9.833,2.32
			c2.477,3.742,3.077,7.782,1.051,13.619c-0.15-5.687-2.702-9.877-5.404-10.626c-0.525-1.646-1.576-3.517-5.779-5.313
			c-1.501-0.599-3.228-0.599-4.729,0c-1.576-0.599-2.702-0.599-3.678,0c-3.377-2.769-4.353-5.836-4.353-10.401
			c0-7.109,5.629-11.599,12.009-11.599c1.951,0,3.603,0.15,5.029,0.524c1.501,0.449,3.453,1.122,4.954,1.122
			c1.126,0,1.876-0.599,2.327-1.122h1.952v11.523h-1.426c-0.976-5.088-5.929-9.952-11.784-9.952c-5.404,0-7.431,3.891-7.431,7.184
			c0,3.966,1.501,6.286,6.23,7.857C160.086,30.227,164.364,31.424,166.766,33.444z M156.483,33.295
			c-4.804-2.395-6.906-4.49-6.831-7.483c-1.952-1.347-2.852-3.592-2.777-7.782c-1.051,2.843-1.876,6.211-1.802,9.054
			c2.027,2.769,5.179,4.64,11.109,6.211H156.483z"/>
		<path style="fill:#A0D1F0;" d="M220.805,16.683v20.429h-7.206l-4.729-6.286v22.598l4.804,6.36v5.688h-21.466l-4.804-6.286v-6.884
			l2.852-0.449c1.501-0.299,1.952-2.395,1.952-5.014v-9.728h-4.954l-6.98-6.286V9.35h34.977L220.805,16.683z M181.625,29.479h4.428
			v-4.19c0-4.415,1.126-9.279,4.354-9.279c2.852,0,3.152,4.415,3.152,7.258v23.945c0,3.442-0.601,5.612-2.477,5.986l-2.402,0.375
			v4.265h18.164v-4.265l-2.327-0.375c-1.952-0.374-2.552-2.544-2.552-5.986V23.268c0-2.843,0.3-7.258,3.153-7.258
			c3.227,0,4.353,4.864,4.353,9.279v4.19h4.429V10.696h-32.275V29.479z M212.623,11.969v16.238h-1.876v-2.619
			c0-4.714-0.976-10.85-5.629-10.85c-3.228,0-4.429,2.694-4.429,7.184v11.523c-0.675-0.599-1.726-0.599-2.777,0
			c0.45,0.973,1.276,2.544,2.327,3.667c-1.051,2.469-1.876,5.911-2.477,12.272c-0.525-6.361-1.351-9.803-2.402-12.272
			c1.051-1.123,1.876-2.694,2.327-3.667c-0.976-0.599-2.026-0.599-2.852,0V21.921c0-4.49-1.201-7.184-4.428-7.184
			c-4.654,0-5.629,6.136-5.629,10.85v2.619H182.9V11.969H212.623z M197.912,33.37c0.45-2.619,1.276-4.116,2.251-5.238
			c-0.976-1.796-1.801-4.49-2.402-10.102c-0.525,5.612-1.351,8.306-2.402,10.102c1.051,1.122,1.876,2.619,2.327,5.238H197.912z"/>
		<path style="fill:#A0D1F0;" d="M226.129,21.322c0-3.442-1.051-4.49-2.477-4.64l-2.402-0.449V9.35h23.193
			c13.661,0,20.341,12.197,20.341,20.877c0,4.864-2.402,8.456-5.554,10.251h5.179l5.78,7.258v4.415c0,9.728-3.378,13.32-9.458,13.32
			c-4.203,0-8.782-2.769-11.484-8.531c-2.251-4.714-2.477-11.449-3.002-12.945h-3.528v8.755l5.179,6.36v6.361h-21.842l-4.804-6.286
			v-6.884l2.927-0.449c1.426-0.299,1.952-2.395,1.952-5.014V21.322z M242.942,37.336c3.453,0,4.653,4.714,5.104,9.054
			c1.051,9.129,3.228,11.973,8.631,11.973c4.429,0,7.281-2.694,7.281-13.095v-3.442h-4.354v3.442c0,1.646-0.3,4.116-1.426,4.116
			c-1.201,0-1.501-2.021-1.876-6.286c-0.375-4.116-1.351-6.959-3.903-8.83v-0.149c2.853-1.571,5.479-4.939,5.479-10.925
			c0-7.708-4.503-12.497-14.111-12.497h-21.167v4.266l2.402,0.374c1.501,0.299,2.402,2.469,2.402,5.986v25.891
			c0,3.442-0.601,5.612-2.402,5.986l-2.402,0.375v4.265h18.54v-4.265l-1.727-0.225c-2.702-0.299-3.528-2.694-3.528-6.136v-9.877
			H242.942z M243.693,11.969c7.806,0,12.91,2.769,12.91,11.224c0,5.388-2.252,8.605-5.404,10.251c-0.601-0.599-1.651-0.599-3.002,0
			c1.727,1.197,2.627,2.096,3.828,3.667c0.9,2.469,1.276,5.911,1.126,12.272c-0.976-6.51-3.528-10.102-6.005-12.272
			c0.676-1.197,0.976-2.395,0.75-3.667c-1.051-0.599-2.102-0.599-3.527,0c-1.351-0.599-2.777-0.599-4.128,0
			c-1.426-0.599-2.927-0.599-4.354,0c-1.426-0.599-2.777-0.599-4.203,0c0.375,0.973,1.351,2.544,2.402,3.667
			c-1.126,2.469-1.952,5.911-2.552,12.272c-0.525-6.361-1.351-9.803-2.327-12.272c0.976-1.123,1.802-2.694,2.177-3.667
			c-1.201-0.599-1.952-0.599-2.627,0V21.322c0-5.687-1.576-7.109-2.927-7.408l-1.952-0.299v-1.646H243.693z M231.684,33.37
			c0.375-2.619,1.276-4.116,2.402-5.238c-1.126-1.796-2.026-4.49-2.552-10.102c-0.375,5.612-1.201,8.306-2.327,10.102
			c0.976,1.122,1.802,2.619,2.177,5.238H231.684z M238.514,15.935c-3.077,0-3.978,1.796-3.978,5.762v9.877h9.157
			c2.777,0,6.53-2.395,6.53-7.708c0-5.013-2.627-7.932-6.68-7.932H238.514z M243.768,17.207c2.477,0,5.104,1.946,5.104,6.66
			c0,4.041-2.627,6.361-5.104,6.361h-7.881v-8.531c0-3.592,0.976-4.49,2.552-4.49H243.768z M244.143,24.839
			c-0.826,0-1.426,0.823-1.426,2.32v1.871h1.276c1.276,0,3.077-1.422,3.077-2.844c0-0.748-0.6-1.347-1.201-1.347H244.143z
			 M248.196,33.37c2.477-1.646,4.579-3.068,6.755-5.238c0-2.245-0.601-5.687-2.702-10.102c1.651,5.238-0.075,8.381-1.426,9.803
			c-0.225,1.945-1.501,4.19-2.927,5.537H248.196z"/>
		<path style="fill:#A0D1F0;" d="M310.867,44.444c0,14.367-7.806,21.476-18.239,21.476c-10.733,0-21.016-7.932-21.016-24.319V27.234
			c0-11.225,8.106-18.333,16.888-18.333c14.336,0,22.367,12.721,22.367,21.775V44.444z M304.036,27.084
			c-0.075-9.354-6.154-16.911-15.537-16.911s-15.537,8.082-15.537,16.911l-0.075,14.292c-0.075,10.177,6.23,16.912,15.612,16.912
			c9.457,0,15.612-8.007,15.537-17.436V27.084z M281.744,33.444c-0.601-0.599-2.102-0.599-3.603,0
			c0.375,0.973,1.276,2.47,2.327,3.667c-1.051,2.469-2.327,7.184-1.351,12.272c-1.952-5.313-3.002-9.728-3.528-12.272
			c1.051-1.197,1.801-2.694,2.327-3.667c-1.426-0.599-3.002-0.599-3.678,0v-6.36c0-7.632,5.104-15.639,14.261-15.639
			c9.082,0,14.186,8.007,14.186,15.639v6.36c-0.676-0.599-2.177-0.599-3.678,0c0.525,0.973,1.276,2.47,2.327,3.667
			c-0.451,2.769-1.051,6.884-3.453,12.272c0.525-5.388-0.3-9.803-1.426-12.272c1.126-1.197,1.952-2.694,2.327-3.667
			c-1.501-0.599-3.002-0.599-3.603,0V23.343c0-7.259-2.853-9.653-6.68-9.653c-3.903,0-6.755,2.395-6.755,9.653V33.444z
			 M278.142,33.295c0.375-2.619,1.276-4.041,2.327-5.238c-1.351-2.918-1.351-5.986-0.75-10.027
			c-2.102,3.592-3.228,6.51-4.128,10.027c1.051,1.197,1.876,2.619,2.327,5.238H278.142z M283.17,23.343
			c0-4.19,0.826-8.306,5.329-8.306c4.428,0,5.329,4.116,5.329,8.306v19.904c0,5.088-0.901,10.252-5.329,10.252
			c-4.503,0-5.329-4.789-5.329-10.252V23.343z M292.553,25.962c0-2.993-0.15-5.089-1.201-5.089c-0.901,0-1.426,1.497-1.426,5.463
			v17.66c0,2.918,0.225,6.286,0.976,6.286c1.125,0,1.651-3.143,1.651-7.184V25.962z M299.007,33.295
			c0.451-2.619,1.276-4.041,2.327-5.238c-0.976-3.442-1.952-6.585-4.128-10.027c0.601,3.292,0.601,7.109-0.75,10.027
			c1.126,1.197,1.952,2.619,2.327,5.238H299.007z"/>
		<path style="fill:#A0D1F0;" d="M313.865,27.084c0-10.102,7.581-18.184,16.438-18.184c2.552,0,4.503,0.524,6.305,1.272
			c1.426,0.673,2.777,1.272,3.228,1.272c0.45,0,0.525-0.898,0.525-2.245h6.905l6.305,7.108v24.021h-10.208l-5.629-6.286
			c-0.226-8.456-1.876-13.17-3.378-13.17c-1.651,0-2.177,2.47-2.177,5.463v20.877c0,2.17,0.751,3.892,2.102,3.892
			c1.952,0,3.153-3.517,3.453-10.102h9.982l6.305,7.034c-1.651,14.891-10.433,17.884-19.14,17.884
			c-10.733,0-21.016-10.551-21.016-26.34V27.084z M346.74,32.696V10.472h-5.104c0,1.945-0.45,2.395-1.201,2.395
			c-0.9,0-2.402-0.599-3.603-1.272c-1.952-0.973-3.903-1.422-6.08-1.422c-9.458,0-15.537,9.129-15.537,16.986v12.421
			c0,9.129,4.503,18.708,16.363,18.708c10.883,0,15.162-8.007,15.162-16.014h-7.731c0,8.306-2.702,11.225-7.206,11.225
			c-4.429,0-6.455-4.34-6.455-10.252V23.343c0-4.19,0.901-8.306,5.404-8.306c5.854,0,8.256,10.251,8.256,17.66H346.74z
			 M323.998,32.172c-0.901-0.524-2.327-0.524-3.603,0c0.375,0.973,1.276,2.469,2.327,3.667c-1.051,2.544-1.952,5.912-1.426,12.197
			c-2.251-5.014-2.927-8.456-3.453-12.197c1.051-1.197,1.876-2.693,2.327-3.667c-1.426-0.524-2.777-0.524-3.678,0v-4.116
			c0-8.306,5.93-16.612,14.261-16.612c2.251,0,4.128,0.673,5.554,1.272c1.801,0.898,3.302,1.497,4.729,1.497
			c1.051,0,1.952-0.748,1.952-2.395h2.402v19.605h-5.029c-0.525-9.354-3.453-17.735-9.607-17.735c-5.705,0-6.755,4.864-6.755,9.653
			V32.172z M320.395,31.724c0.375-1.048,1.051-2.47,2.327-3.667c-1.201-2.918-1.276-5.986-0.75-10.102
			c-2.102,3.517-3.453,7.258-4.128,10.102c1.126,1.197,2.026,2.619,2.327,3.667H320.395z"/>
		<path style="fill:#A0D1F0;" d="M376.91,10.996V9.35h17.038l5.629,7.333v5.912l-2.402,0.375c-1.351,0.149-2.552,1.721-2.552,5.762
			v21.326c0,11.149-6.905,15.938-15.462,15.938c-10.358,0-19.515-7.558-19.515-26.938V21.322c0-3.442-1.051-4.49-2.477-4.64
			l-2.402-0.449V9.35h20.791L376.91,10.996z M356.119,14.962l2.402,0.374c1.501,0.299,2.402,2.469,2.402,5.986v17.734
			c0,13.095,3.077,19.231,14.937,19.231c7.731,0,11.934-3.816,11.934-17.884V21.322c0-2.844,0.45-5.687,2.477-5.986l2.402-0.374
			v-4.266h-14.486v4.266l2.327,0.374c2.102,0.299,2.552,3.143,2.552,5.986v20.354c0,9.429-2.777,11.823-6.68,11.823
			c-6.08,0-6.98-4.49-6.98-16.238V21.322c0-3.517,0.901-5.687,2.402-5.986l2.402-0.374v-4.266h-18.089V14.962z M372.932,11.969
			v1.646l-1.952,0.299c-1.351,0.299-2.927,1.721-2.927,7.408v12.122c-0.3-0.599-1.501-0.599-2.777,0
			c0.451,0.973,1.276,2.47,2.402,3.667c-1.125,2.469-1.951,5.911-1.501,12.197c-1.727-6.286-2.702-9.728-3.453-12.197
			c1.126-1.197,1.952-2.694,2.327-3.667c-1.201-0.599-2.402-0.599-2.777,0V21.322c0-5.687-1.576-7.109-2.927-7.408l-1.952-0.299
			v-1.646H372.932z M365.275,33.295c0.451-2.619,1.276-4.041,2.402-5.238c-1.125-1.796-1.951-4.489-2.477-10.102
			c-0.525,5.612-1.351,8.306-2.477,10.102c1.126,1.197,1.952,2.619,2.327,5.238H365.275z M376.234,41.825
			c0,7.857,1.351,8.605,3.152,8.605c1.201,0,2.327-2.993,2.327-8.904V22.37l-2.702,0.075c-2.027,0.374-2.777,2.245-2.777,5.836
			V41.825z M391.396,11.969v1.646l-1.201,0.299c-3.228,0.674-3.753,3.292-3.753,7.408v12.122c-0.601-0.599-1.426-0.599-2.102,0
			V21.322c0-4.116-0.676-6.66-3.828-7.408l-0.976-0.299v-1.646H391.396z"/>
		<path style="fill:#A0D1F0;" d="M420.515,47.438c0,2.021,1.502,2.544,2.702,2.544c1.427,0,2.777-1.796,2.777-4.565v-4.19h7.28
			l5.63,7.558v16.687h-35.052l-4.804-6.286v-6.884l2.927-0.449c1.426-0.299,1.951-2.395,1.951-5.014V21.322
			c0-3.442-1.051-4.49-2.477-4.64l-2.401-0.449V9.35h20.791l5.554,7.333v5.912l-2.326,0.375c-1.352,0.149-2.553,1.721-2.553,5.762
			V47.438z M405.203,47.213c0,3.442-0.601,5.612-2.401,5.986l-2.402,0.375v4.265h31.675v-15.34h-4.729v4.115
			c0,3.592-1.877,5.313-7.131,5.313c-5.479,0-6.53-2.395-6.53-6.66V21.322c0-3.517,0.9-5.687,2.402-5.986l2.401-0.374v-4.266
			h-18.089v4.266l2.402,0.374c1.501,0.299,2.401,2.469,2.401,5.986V47.213z M406.555,21.322c0-5.687-1.577-7.109-2.928-7.408
			l-1.951-0.299v-1.646h15.537v1.646l-1.952,0.299c-1.351,0.299-2.927,1.721-2.927,7.408v12.122c-0.751-0.599-1.802-0.599-2.777,0
			c0.45,0.973,1.275,2.544,2.401,3.667c-1.126,2.469-1.951,5.911-2.477,12.272c-0.525-6.361-1.351-9.803-2.477-12.272
			c1.126-1.123,1.951-2.694,2.326-3.667c-1.051-0.599-2.026-0.599-2.776,0V21.322z M409.557,33.37
			c0.45-2.619,1.275-4.116,2.401-5.238c-1.126-1.796-1.951-4.49-2.477-10.102c-0.525,5.612-1.351,8.306-2.477,10.102
			c1.126,1.122,1.951,2.619,2.326,5.238H409.557z"/>
		<path style="fill:#A0D1F0;" d="M463.295,9.35l8.406,8.755l8.031,30.83c0.676,2.395,2.402,5.837,4.804,7.333v9.204h-19.439
			l-1.952-2.619v2.619H444.08l-5.179-6.885v-6.136l1.951-0.599c1.877-0.599,3.228-3.068,4.954-9.354l8.932-33.149H463.295z
			 M462.244,42.574l0.525,2.245c1.201,5.688,0.301,7.633-1.651,8.231l-1.951,0.524v4.265h18.464v-4.265l-2.102-0.823
			c-1.275-0.449-2.552-2.619-3.902-7.857l-8.857-34.197h-6.98l-8.632,31.803c-2.102,7.707-3.377,9.952-5.254,10.551l-1.651,0.524
			v4.265h15.913v-4.265l-1.952-0.524c-1.651-0.599-2.777-3.816-1.651-8.231l0.601-2.245H462.244z M456.915,11.969h4.729l5.63,21.476
			c-0.901-0.599-1.802-0.599-2.702,0c0.45,0.973,1.651,2.544,2.927,3.667c-0.375,3.068-0.525,6.211,0.376,12.272
			c-1.952-6.061-3.152-8.83-5.18-12.272c0.751-1.123,1.576-2.694,1.651-3.667c-1.126-0.599-2.102-0.599-2.702,0l-3.228-14.891
			h-0.149l-4.054,14.891c-0.9-0.599-1.951-0.599-3.077,0L456.915,11.969z M454.889,35.914l3.152-11.449h0.301l2.477,11.449H454.889z
			 M464.571,33.37c0-2.619,0.3-4.116,0.75-5.238c-1.351-1.796-2.477-4.49-4.503-10.102c0.676,5.612,0.601,8.306,0.225,10.102
			c1.126,1.122,2.177,2.619,3.303,5.238H464.571z"/>
		<path style="fill:#A0D1F0;" d="M489.111,21.322c0-3.442-1.051-4.49-2.477-4.64l-2.402-0.449V9.35h23.193
			c13.66,0,20.341,12.197,20.341,20.877c0,4.864-2.402,8.456-5.555,10.251h5.179l5.779,7.258v4.415c0,9.728-3.377,13.32-9.457,13.32
			c-4.203,0-8.781-2.769-11.483-8.531c-2.252-4.714-2.478-11.449-3.003-12.945h-3.527v8.755l5.179,6.36v6.361h-21.842l-4.804-6.286
			v-6.884l2.928-0.449c1.426-0.299,1.951-2.395,1.951-5.014V21.322z M505.924,37.336c3.453,0,4.654,4.714,5.104,9.054
			c1.051,9.129,3.228,11.973,8.632,11.973c4.428,0,7.28-2.694,7.28-13.095v-3.442h-4.354v3.442c0,1.646-0.3,4.116-1.426,4.116
			c-1.201,0-1.501-2.021-1.877-6.286c-0.375-4.116-1.351-6.959-3.902-8.83v-0.149c2.852-1.571,5.479-4.939,5.479-10.925
			c0-7.708-4.503-12.497-14.11-12.497h-21.166v4.266l2.401,0.374c1.501,0.299,2.402,2.469,2.402,5.986v25.891
			c0,3.442-0.601,5.612-2.402,5.986l-2.401,0.375v4.265h18.539v-4.265l-1.727-0.225c-2.702-0.299-3.527-2.694-3.527-6.136v-9.877
			H505.924z M506.675,11.969c7.806,0,12.91,2.769,12.91,11.224c0,5.388-2.252,8.605-5.404,10.251c-0.601-0.599-1.651-0.599-3.002,0
			c1.726,1.197,2.627,2.096,3.827,3.667c0.901,2.469,1.276,5.911,1.126,12.272c-0.976-6.51-3.527-10.102-6.004-12.272
			c0.675-1.197,0.976-2.395,0.75-3.667c-1.051-0.599-2.102-0.599-3.527,0c-1.352-0.599-2.777-0.599-4.128,0
			c-1.427-0.599-2.928-0.599-4.354,0c-1.427-0.599-2.777-0.599-4.203,0c0.375,0.973,1.351,2.544,2.401,3.667
			c-1.126,2.469-1.951,5.911-2.552,12.272c-0.525-6.361-1.352-9.803-2.327-12.272c0.976-1.123,1.802-2.694,2.177-3.667
			c-1.201-0.599-1.951-0.599-2.627,0V21.322c0-5.687-1.576-7.109-2.928-7.408l-1.951-0.299v-1.646H506.675z M494.666,33.37
			c0.375-2.619,1.275-4.116,2.401-5.238c-1.126-1.796-2.026-4.49-2.552-10.102c-0.375,5.612-1.201,8.306-2.327,10.102
			c0.976,1.122,1.802,2.619,2.177,5.238H494.666z M501.496,15.935c-3.078,0-3.979,1.796-3.979,5.762v9.877h9.157
			c2.777,0,6.53-2.395,6.53-7.708c0-5.013-2.627-7.932-6.681-7.932H501.496z M506.75,17.207c2.477,0,5.104,1.946,5.104,6.66
			c0,4.041-2.627,6.361-5.104,6.361h-7.881v-8.531c0-3.592,0.976-4.49,2.552-4.49H506.75z M507.125,24.839
			c-0.825,0-1.426,0.823-1.426,2.32v1.871h1.275c1.276,0,3.078-1.422,3.078-2.844c0-0.748-0.601-1.347-1.201-1.347H507.125z
			 M511.179,33.37c2.477-1.646,4.578-3.068,6.755-5.238c0-2.245-0.601-5.687-2.702-10.102c1.651,5.238-0.075,8.381-1.426,9.803
			c-0.226,1.945-1.502,4.19-2.928,5.537H511.179z"/>
	</g>
</g>
</svg>
