<?xml version="1.0" encoding="utf-8"?>
<!-- Generator: Adobe Illustrator 17.1.0, SVG Export Plug-In . SVG Version: 6.00 Build 0)  -->
<!DOCTYPE svg PUBLIC "-//W3C//DTD SVG 1.1//EN" "http://www.w3.org/Graphics/SVG/1.1/DTD/svg11.dtd">
<svg version="1.1" id="Group_1_copy_1_" xmlns="http://www.w3.org/2000/svg" xmlns:xlink="http://www.w3.org/1999/xlink" x="0px"
	 y="0px" viewBox="0 0 1192.255 201.758" style="enable-background:new 0 0 1192.255 201.758;" xml:space="preserve">
<g id="sinistr">
	<g>
		<path style="fill:#89B2CC;" d="M40.089,124.605c0,1.681,0,5.23,1.492,8.406c1.305,2.989,4.289,5.791,10.255,5.791
			c8.018,0,10.628-5.417,10.628-9.527c0-6.538-5.407-8.406-13.239-10.462l-19.019-5.417c-5.78-1.495-22.749-6.165-22.749-25.407
			c0-9.341,5.035-17.187,11.188-21.297c8.204-5.791,19.392-8.033,33.19-8.033c20.138,0,41.208,5.417,42.7,31.571h-33.19
			c0-2.802,0-6.352-1.305-9.154c-1.492-2.989-4.103-5.044-9.696-5.044c-5.407,0-10.442,2.429-10.442,8.22
			c0,5.417,3.916,7.473,9.51,8.967l24.986,6.912c8.95,2.429,22.002,7.473,22.002,25.781c0,31.758-36.733,31.758-44.937,31.758
			c-19.02,0-46.429-2.802-46.057-33.065H40.089z"/>
		<path style="fill:#89B2CC;" d="M108.708,20.549h35.801v25.033h-35.801V20.549z M109.081,61.275h35.055v93.78h-35.055V61.275z"/>
		<path style="fill:#89B2CC;" d="M159.051,81.264l-0.932-19.989h35.055l0.373,14.385c4.289-7.099,11.747-16.44,31.139-16.44
			c34.309,0,34.309,26.154,34.309,39.044v56.791H223.94v-53.802c0-6.539,0-19.802-14.358-19.802
			c-15.663,0-15.663,16.439-15.663,19.802v53.802h-34.869V81.264z"/>
		<path style="fill:#89B2CC;" d="M272.792,20.549h35.801v25.033h-35.801V20.549z M273.165,61.275h35.055v93.78h-35.055V61.275z"/>
		<path style="fill:#89B2CC;" d="M355.021,124.605c0,1.681,0,5.23,1.492,8.406c1.305,2.989,4.289,5.791,10.255,5.791
			c8.018,0,10.628-5.417,10.628-9.527c0-6.538-5.407-8.406-13.239-10.462l-19.019-5.417c-5.78-1.495-22.749-6.165-22.749-25.407
			c0-9.341,5.035-17.187,11.188-21.297c8.205-5.791,19.393-8.033,33.19-8.033c20.138,0,41.208,5.417,42.7,31.571h-33.19
			c0-2.802,0-6.352-1.305-9.154c-1.492-2.989-4.102-5.044-9.696-5.044c-5.407,0-10.442,2.429-10.442,8.22
			c0,5.417,3.916,7.473,9.51,8.967l24.986,6.912c8.95,2.429,22.002,7.473,22.002,25.781c0,31.758-36.733,31.758-44.938,31.758
			c-19.019,0-46.429-2.802-46.056-33.065H355.021z"/>
		<path style="fill:#89B2CC;" d="M491.511,61.648v22.417h-22.562v32.506c0.187,11.582,0.187,16.813,13.612,16.813
			c2.797,0,4.475,0,8.764-0.561v22.044c-4.662,0.747-10.815,1.681-22.749,1.681c-27.969,0-33.563-9.34-33.563-27.461V84.066h-17.714
			V61.648h18.273V47.077l33.75-13.451v28.022H491.511z"/>
		<path style="fill:#89B2CC;" d="M506.425,81.264l-0.933-19.989h34.123l0.56,19.429c8.018-20.923,24.986-20.363,33.004-20.176
			v30.077c-4.102-0.374-5.035-0.561-7.458-0.561c-21.443,0-24.427,15.132-24.427,25.22v39.791h-34.868V81.264z"/>
	</g>
</g>
<g id="o_1_">
	<g>
		<path style="fill:#D88162;" d="M637.093,58.099c30.394,0,54.074,15.319,54.074,48.571c0,13.638-3.916,27.462-13.611,37.176
			c-7.832,7.659-19.393,13.451-38.598,13.451c-20.697,0-34.123-5.044-43.259-13.824c-10.814-10.275-13.425-24.286-13.425-35.682
			C582.273,79.022,599.987,58.099,637.093,58.099z M623.108,130.209c4.103,7.099,10.441,7.472,13.611,7.472
			c15.29,0,18.273-16.626,18.273-29.703c0-16.252-3.915-29.89-17.9-29.89c-15.477,0-18.46,15.879-18.46,29.89
			C618.633,114.143,619.192,123.297,623.108,130.209z"/>
	</g>
</g>
<g id="o" style="opacity:0.749;">
	<g>
		<path style="fill:#A0D1F0;" d="M654.344,58.099c30.394,0,54.074,15.319,54.074,48.571c0,13.638-3.916,27.462-13.611,37.176
			c-7.832,7.659-19.393,13.451-38.598,13.451c-20.697,0-34.123-5.044-43.26-13.824c-10.814-10.275-13.425-24.286-13.425-35.682
			C599.524,79.022,617.238,58.099,654.344,58.099z M640.359,130.209c4.103,7.099,10.441,7.472,13.611,7.472
			c15.29,0,18.273-16.626,18.273-29.703c0-16.252-3.915-29.89-17.9-29.89c-15.477,0-18.46,15.879-18.46,29.89
			C635.884,114.143,636.443,123.297,640.359,130.209z"/>
	</g>
</g>
<g id="cular" style="opacity:0.749;">
	<g>
		<path style="fill:#A0D1F0;" d="M786.148,94.154c0-8.78-3.356-16.066-12.493-16.066c-12.866,0-15.85,13.077-15.85,29.517
			c0,24.286,6.713,29.89,15.477,29.89c11.934,0,12.68-11.956,12.68-19.055h35.428c0.187,23.726-18.833,38.857-47.175,38.857
			c-29.834,0-52.583-15.88-52.583-49.693c0-36.989,25.919-49.505,52.21-49.505c10.068,0,27.037,1.681,37.852,13.451
			c8.018,8.593,8.764,17.187,9.137,22.604H786.148z"/>
		<path style="fill:#A0D1F0;" d="M870.801,61.275v54.736c0,5.23,0,18.308,13.985,18.308c14.73,0,14.73-13.45,14.73-18.681V61.275
			h35.055v77.527c0.373,8.033,0.373,8.967,0.56,16.253h-34.496l-0.745-14.571c-9.51,15.132-21.257,16.253-29.462,16.253
			c-32.444,0-34.495-24.66-34.495-42.594V61.275H870.801z"/>
		<path style="fill:#A0D1F0;" d="M953.775,20.176h35.055v134.879h-35.055V20.176z"/>
		<path style="fill:#A0D1F0;" d="M1070.126,155.055c-0.745-3.362-1.118-7.473-1.118-13.45c-4.289,6.352-11.561,15.318-30.767,15.318
			c-22.935,0-33.004-12.517-33.004-29.143c0-25.594,23.681-34.935,63.957-33.253c0.187-10.088-1.119-19.429-11.747-19.429
			c-6.526,0-12.68,3.549-12.493,14.198h-33.563c0.187-4.297,0.187-12.33,7.271-19.615c7.272-7.473,21.816-11.77,38.785-11.77
			c8.391,0,26.291,1.121,36.173,10.835c5.967,5.791,8.205,14.571,8.205,24.659v43.714c0,6.726,0.187,8.594,1.864,17.935H1070.126z
			 M1039.732,124.605c0,6.912,4.476,12.703,12.866,12.703c3.729,0,10.256-1.495,13.798-8.967c2.798-5.979,2.798-13.638,2.611-17.561
			C1054.091,110.967,1039.732,111.154,1039.732,124.605z"/>
		<path style="fill:#A0D1F0;" d="M1121.962,81.264l-0.933-19.989h34.123l0.559,19.429c8.019-20.923,24.986-20.363,33.004-20.176
			v30.077c-4.102-0.374-5.034-0.561-7.458-0.561c-21.443,0-24.427,15.132-24.427,25.22v39.791h-34.868V81.264z"/>
	</g>
</g>
</svg>
