<?xml version="1.0" encoding="utf-8"?>
<!-- Generator: Adobe Illustrator 20.0.0, SVG Export Plug-In . SVG Version: 6.00 Build 0)  -->
<svg version="1.1" id="Layer_1" xmlns="http://www.w3.org/2000/svg" xmlns:xlink="http://www.w3.org/1999/xlink" x="0px" y="0px"
	 viewBox="0 0 202.25 164.36" enable-background="new 0 0 202.25 164.36" xml:space="preserve" tabindex="0">Twitter
<title>new-twitter-logo-vector</title>
<path fill="#818181" d="M202.25,19.46c-7.57,3.36-15.6,5.56-23.83,6.54c8.67-5.2,15.16-13.37,18.24-23
	c-8.14,4.85-17.05,8.26-26.35,10.1c-15.72-16.7-42-17.5-58.71-1.79c-10.77,10.13-15.34,25.23-11.99,39.64
	C66.24,49.28,35.15,33.52,14.08,7.59C3.06,26.55,8.68,50.82,26.92,63c-6.59-0.21-13.03-1.99-18.79-5.2c0,0.17,0,0.35,0,0.52
	C8.14,78.07,22.05,95.08,41.41,99c-6.11,1.66-12.52,1.9-18.74,0.71c5.44,16.9,21.01,28.48,38.76,28.81
	c-14.69,11.54-32.84,17.8-51.53,17.78c-3.31,0-6.61-0.19-9.9-0.58c18.97,12.19,41.06,18.66,63.61,18.64
	c76.32,0,118.06-63.23,118.06-118.06c0-1.8-0.04-3.59-0.12-5.37C189.67,35.06,196.68,27.79,202.25,19.46z"/>
</svg>
