<?xml version="1.0" encoding="utf-8"?>
<!-- Generator: Adobe Illustrator 20.0.0, SVG Export Plug-In . SVG Version: 6.00 Build 0)  -->
<svg version="1.1" id="Layer_1" xmlns="http://www.w3.org/2000/svg" xmlns:xlink="http://www.w3.org/1999/xlink" x="0px" y="0px"
	 viewBox="0 0 120.78 117.79" enable-background="new 0 0 120.78 117.79" xml:space="preserve" tabindex="0">GitHub
<title>GitHub-Mark</title>
<path fill="#818181" d="M60.39,0C27.04-0.01-0.01,27.02-0.02,60.37c-0.01,26.01,16.64,49.11,41.32,57.32c3,0.56,4.13-1.31,4.13-2.91
	c0-1.44-0.06-6.2-0.08-11.24c-16.8,3.65-20.34-7.12-20.34-7.12c-2.75-7-6.7-8.84-6.7-8.84c-5.48-3.75,0.41-3.67,0.41-3.67
	c6.06,0.43,9.26,6.22,9.26,6.22c5.39,9.23,14.13,6.56,17.57,5c0.54-3.9,2.11-6.57,3.83-8.08c-13.41-1.53-27.51-6.71-27.51-29.84
	c-0.09-6,2.14-11.81,6.22-16.21c-0.63-1.52-2.69-7.66,0.59-16c0,0,5.07-1.62,16.61,6.19c9.9-2.71,20.34-2.71,30.24,0
	C87.06,23.38,92.12,25,92.12,25c3.29,8.32,1.22,14.46,0.59,16c4.08,4.4,6.3,10.21,6.21,16.21c0,23.19-14.13,28.3-27.57,29.8
	c2.17,1.87,4.1,5.55,4.1,11.18c0,8.08-0.07,14.58-0.07,16.57c0,1.61,1.09,3.49,4.15,2.9c31.62-10.62,48.65-44.86,38.04-76.48
	C109.32,16.61,86.31,0.03,60.39,0z"/>
<path fill="#FFFFFF" d="M22.87,86.71c-0.04,0.51-0.48,0.89-0.99,0.85c-0.51-0.04-0.89-0.48-0.85-0.99c0.04-0.51,0.48-0.89,0.99-0.85
	c0.11,0.01,0.21,0.03,0.31,0.08C22.73,85.91,22.97,86.31,22.87,86.71L22.87,86.71z"/>
<path fill="#FFFFFF" d="M25.32,89.44c-0.28,0.55-0.95,0.77-1.49,0.49c-0.55-0.28-0.77-0.95-0.49-1.49s0.95-0.77,1.49-0.49
	c0.12,0.06,0.23,0.14,0.32,0.24C25.53,88.49,25.61,89.05,25.32,89.44L25.32,89.44z"/>
<path fill="#FFFFFF" d="M27.7,92.91c-0.52,0.2-1.1-0.02-1.35-0.52c-0.4-0.38-0.41-1.02-0.03-1.41c0.01-0.01,0.02-0.02,0.03-0.03
	c0.68-0.18,1.37,0.22,1.56,0.89c0.1,0.38,0.02,0.79-0.22,1.11l0,0L27.7,92.91z"/>
<path fill="#FFFFFF" d="M30.96,96.27c-0.49,0.35-1.18,0.25-1.55-0.23c-0.53-0.16-0.83-0.71-0.68-1.24c0.16-0.53,0.71-0.83,1.24-0.68
	c0.3,0.09,0.54,0.31,0.65,0.61C31.13,95.07,31.28,95.75,30.96,96.27L30.96,96.27z"/>
<path fill="#FFFFFF" d="M35.46,98.22c-0.48,0.61-1.35,0.72-1.96,0.24c-0.31-0.24-0.5-0.6-0.54-0.99c0.48-0.61,1.35-0.72,1.96-0.24
	C35.23,97.47,35.43,97.83,35.46,98.22L35.46,98.22z"/>
<path fill="#FFFFFF" d="M40.4,98.57c-0.27,0.72-1.07,1.08-1.79,0.81c-0.37-0.14-0.67-0.44-0.81-0.81c0.12-0.6,0.68-1,1.29-0.92
	c0.6-0.11,1.18,0.28,1.31,0.88l0,0V98.57z"/>
<path fill="#FFFFFF" d="M45,97.8c0.39,0.66,0.17,1.51-0.49,1.9c-0.66,0.39-1.51,0.17-1.9-0.49s-0.17-1.51,0.49-1.9
	c0.14-0.08,0.3-0.14,0.46-0.17C44.14,96.95,44.76,97.24,45,97.8L45,97.8z"/>
</svg>
