<?xml version="1.0" encoding="utf-8"?>
<!-- Generator: Adobe Illustrator 20.0.0, SVG Export Plug-In . SVG Version: 6.00 Build 0)  -->
<svg version="1.1" id="Layer_1" xmlns="http://www.w3.org/2000/svg" xmlns:xlink="http://www.w3.org/1999/xlink" x="0px" y="0px"
	 viewBox="0 0 96 96" enable-background="new 0 0 96 96" xml:space="preserve">
<path fill="#818181" d="M48,0C34.97,0,33.33,0.06,28.21,0.29c-5.11,0.23-8.6,1.04-11.65,2.23c-3.16,1.23-5.83,2.87-8.5,5.53
	c-2.67,2.67-4.31,5.35-5.54,8.5c-1.19,3.05-2,6.54-2.23,11.65C0.06,33.33,0,34.96,0,48s0.06,14.67,0.29,19.79
	c0.24,5.11,1.04,8.6,2.23,11.65c1.23,3.16,2.87,5.83,5.54,8.5c2.67,2.67,5.34,4.31,8.5,5.54c3.05,1.19,6.54,2,11.65,2.23
	C33.33,95.94,34.96,96,48,96c13.04,0,14.67-0.06,19.79-0.29c5.11-0.23,8.6-1.04,11.66-2.23c3.16-1.23,5.83-2.87,8.5-5.54
	c2.67-2.67,4.31-5.35,5.54-8.5c1.18-3.05,1.99-6.54,2.23-11.65C95.94,62.67,96,61.04,96,48s-0.06-14.67-0.29-19.79
	c-0.24-5.11-1.05-8.6-2.23-11.65c-1.23-3.16-2.87-5.83-5.54-8.5c-2.67-2.67-5.34-4.31-8.5-5.53c-3.06-1.19-6.55-2-11.66-2.23
	C62.66,0.06,61.03,0,47.99,0L48,0z M43.7,8.65c1.28,0,2.7,0,4.31,0c12.82,0,14.33,0.05,19.4,0.28c4.68,0.21,7.22,1,8.91,1.65
	c2.24,0.87,3.84,1.91,5.52,3.59c1.68,1.68,2.72,3.28,3.59,5.52c0.66,1.69,1.44,4.23,1.65,8.91c0.23,5.06,0.28,6.58,0.28,19.39
	s-0.05,14.33-0.28,19.39c-0.21,4.68-1,7.22-1.65,8.91c-0.87,2.24-1.91,3.83-3.59,5.51c-1.68,1.68-3.28,2.72-5.52,3.59
	c-1.69,0.66-4.23,1.44-8.91,1.65c-5.06,0.23-6.58,0.28-19.4,0.28c-12.82,0-14.34-0.05-19.4-0.28c-4.68-0.22-7.22-1-8.91-1.65
	c-2.24-0.87-3.84-1.91-5.52-3.59c-1.68-1.68-2.72-3.28-3.59-5.52c-0.66-1.69-1.44-4.23-1.65-8.91c-0.23-5.06-0.28-6.58-0.28-19.4
	S8.7,33.65,8.93,28.59c0.21-4.68,1-7.22,1.65-8.91c0.87-2.24,1.91-3.84,3.59-5.52c1.68-1.68,3.28-2.72,5.52-3.59
	c1.69-0.66,4.23-1.44,8.91-1.66c4.43-0.2,6.14-0.26,15.09-0.27L43.7,8.65z M73.63,16.62c-3.18,0-5.76,2.58-5.76,5.76
	c0,3.18,2.58,5.76,5.76,5.76s5.76-2.58,5.76-5.76S76.81,16.62,73.63,16.62L73.63,16.62z M48,23.35c-13.61,0-24.65,11.04-24.65,24.65
	S34.39,72.65,48,72.65c13.61,0,24.65-11.03,24.65-24.65S61.62,23.35,48,23.35L48,23.35z M48,32c8.84,0,16,7.16,16,16
	c0,8.84-7.16,16-16,16c-8.84,0-16-7.16-16-16C32,39.16,39.17,32,48,32z"/>
</svg>
