<?xml version="1.0" encoding="utf-8"?>
<!-- Generator: Adobe Illustrator 20.0.0, SVG Export Plug-In . SVG Version: 6.00 Build 0)  -->
<svg version="1.1" id="Layer_1" xmlns="http://www.w3.org/2000/svg" xmlns:xlink="http://www.w3.org/1999/xlink" x="0px" y="0px"
	 viewBox="0 0 100.11 100.11" enable-background="new 0 0 100.11 100.11" xml:space="preserve">
<title>flickr</title>
<path fill="#818181" d="M94.6,5.51C91.13,1.92,86.33-0.07,81.34,0H18.77C13.78-0.07,8.98,1.92,5.51,5.51
	C1.92,8.98-0.07,13.78,0,18.77v62.57c-0.07,4.99,1.92,9.79,5.51,13.26c3.47,3.59,8.27,5.58,13.26,5.51h62.57
	c10.36-0.02,18.75-8.41,18.77-18.77V18.77C100.18,13.78,98.19,8.98,94.6,5.51L94.6,5.51z M41.45,59.83c-2.57,2.62-6.11,4.07-9.78,4
	c-7.61,0.01-13.79-6.16-13.81-13.77c-0.01-7.62,6.16-13.81,13.78-13.82c0.01,0,0.03,0,0.04,0c7.62-0.01,13.81,6.16,13.82,13.78
	c0,0.01,0,0.03,0,0.04c0.07,3.67-1.38,7.2-4,9.77l0,0H41.45z M78.21,59.83c-5.4,5.39-14.15,5.39-19.55,0
	c-5.39-5.4-5.39-14.15,0-19.55c5.4-5.39,14.15-5.39,19.55,0C83.6,45.68,83.6,54.43,78.21,59.83L78.21,59.83z"/>
</svg>
