<?xml version="1.0" encoding="utf-8"?>
<!-- Generator: Adobe Illustrator 20.0.0, SVG Export Plug-In . SVG Version: 6.00 Build 0)  -->
<svg version="1.1" id="Layer_1" xmlns="http://www.w3.org/2000/svg" xmlns:xlink="http://www.w3.org/1999/xlink" x="0px" y="0px"
	 viewBox="0 0 835.7070312 211.5322266" enable-background="new 0 0 835.7070312 211.5322266" xml:space="preserve">
<g>
	<path fill="#707070" stroke="#e1e1e1" d="M9.5317383,110.1821289h3.5854492c0.5820312,13.2348633,3.6860352,22.7514648,9.3129883,28.5512695
		c5.625,5.8017578,12.1113281,8.7011719,19.456543,8.7011719c6.2373047,0,11.644043-2.0839844,16.2211914-6.2529297
		c4.5761719-4.1669922,6.8647461-9.3701172,6.8647461-15.609375c0-4.546875-1.0205078-8.6416016-3.0605469-12.2856445
		c-2.0415039-3.6425781-5.684082-7.9140625-10.9306641-12.8110352C42.527832,92.4892578,36.7998047,86.046875,33.7978516,81.1499023
		c-3.0029297-4.8969727-4.503418-10.6098633-4.503418-17.1396484c0-9.0942383,3.2641602-17.1679688,9.7939453-24.222168
		c6.5283203-7.0532227,14.0200195-10.5810547,22.4736328-10.5810547c9.9101562,0,17.3144531,5.0141602,22.2114258,15.0405273
		c2.3901367-3.7890625,4.1977539-8.1025391,5.421875-12.9418945h3.5854492L88.1459961,66.109375h-3.9350586
		c-0.059082-8.2773438-1.1806641-14.6762695-3.3666992-19.1948242c-2.1860352-4.5170898-4.984375-7.9575195-8.3950195-10.3183594
		c-3.4101562-2.3613281-7.1855469-3.5415039-11.3242188-3.5415039c-6.1210938,0-11.0180664,2.347168-14.690918,7.0390625
		c-3.6728516,4.6933594-5.5092773,10.0429688-5.5092773,16.0463867c0,4.8969727,1.2529297,9.168457,3.7602539,12.8110352
		c2.5058594,3.644043,7.3154297,8.730957,14.4287109,15.2592773c8.2773438,7.6381836,13.4667969,13.9042969,15.5654297,18.8012695
		s3.1479492,9.8525391,3.1479492,14.8657227c0,9.9116211-3.5849609,18.0727539-10.7558594,24.4848633
		c-7.1704102,6.4140625-15.2158203,9.6191406-24.1352539,9.6191406c-10.7270508,0-19.8803711-5.1875-27.4580078-15.5654297
		c-2.6821289,3.5566406-4.6347656,7.5791016-5.8588867,12.0673828H5.246582L9.5317383,110.1821289z"/>
	<path fill="#707070" stroke="#e1e1e1" d="M128.4516602,130.7324219h4.1977539c-2.7412109,5.6552734-6.3110352,10.6679688-10.7124023,15.0400391
		c-4.4023438,4.3730469-8.6435547,6.5585938-12.7231445,6.5585938c-2.7412109,0-5.1459961-0.9765625-7.2143555-2.9287109
		c-2.0703125-1.953125-3.1044922-4.8232422-3.1044922-8.6142578c0-3.0888672,1.6313477-9.0068359,4.8969727-17.7509766
		l10.0561523-26.6713867c2.3310547-6.2373047,3.4980469-10.0263672,3.4980469-11.3681641
		c0-1.1655273-0.2773438-2.0400391-0.8305664-2.6235352C115.9609375,81.7919922,115.1298828,81.5,114.0234375,81.5
		c-2.2739258,0-4.9711914,1.7636719-8.0888672,5.2900391c-3.1196289,3.5283203-5.3208008,6.7197266-6.6025391,9.5756836h-4.1972656
		c3.2055664-6.3535156,6.8647461-11.3681641,10.9746094-15.0410156c4.1098633-3.6723633,7.9423828-5.5087891,11.4990234-5.5087891
		c2.7397461,0,4.984375,0.9331055,6.7333984,2.7983398c1.7490234,1.8662109,2.6235352,4.3149414,2.6235352,7.3452148
		c0,3.0908203-1.5454102,8.7446289-4.6347656,16.9648438l-8.3945312,22.7358398
		c-3.0908203,8.2197266-4.6347656,13.3789062-4.6347656,15.4775391c0,1.6923828,0.3344727,2.9599609,1.0053711,3.8046875
		c0.6694336,0.8457031,1.6464844,1.2675781,2.9296875,1.2675781
		C117.5498047,146.2099609,122.621582,141.0507812,128.4516602,130.7324219z M121.980957,37.2519531
		c0-2.0986328,0.7431641-3.8916016,2.2299805-5.3779297c1.4863281-1.4868164,3.2792969-2.2299805,5.3779297-2.2299805
		s3.8911133,0.7431641,5.3779297,2.2299805c1.4863281,1.4863281,2.2299805,3.2792969,2.2299805,5.3779297
		s-0.7436523,3.90625-2.2299805,5.4213867c-1.4868164,1.5170898-3.2792969,2.2739258-5.3779297,2.2739258
		c-2.1577148,0-3.965332-0.7719727-5.421875-2.3173828C122.7089844,41.0859375,121.980957,39.293457,121.980957,37.2519531z"/>
	<path fill="#707070" stroke="#e1e1e1" d="M213.7011719,133.4433594h4.4599609c-3.4980469,6.2958984-7.0698242,11.0175781-10.7124023,14.1660156
		c-3.644043,3.1474609-7.3603516,4.7216797-11.1494141,4.7216797c-2.6235352,0-4.8833008-0.8017578-6.7768555-2.4042969
		c-1.8955078-1.6025391-2.8422852-3.9794922-2.8422852-7.1269531c0-2.6240234,1.340332-7.8115234,4.0224609-15.5654297
		l9.3569336-26.6713867c2.5058594-7.2866211,3.7602539-12.0087891,3.7602539-14.1660156
		c0-1.9238281-0.4238281-3.3520508-1.2680664-4.2851562c-0.8457031-0.9316406-2.1425781-1.3989258-3.8911133-1.3989258
		c-4.4311523,0-10.2177734,5.203125-17.3583984,15.6088867c-7.1416016,10.40625-13.2783203,24.0341797-18.4072266,40.8813477
		l-4.2851562,13.9912109h-10.668457l15.390625-49.6694336c2.7983398-9.1518555,4.1972656-14.3984375,4.1972656-15.7402344
		c0-0.9907227-0.1748047-1.71875-0.5244141-2.1860352c-0.3496094-0.4663086-0.9047852-0.699707-1.6616211-0.699707
		c-3.4404297,0-7.5205078,4.2563477-12.2421875,12.7670898h-4.0229492
		c7.2871094-13.2329102,14.1953125-19.8500977,20.7250977-19.8500977c2.2734375,0,3.9785156,0.6855469,5.1157227,2.0546875
		c1.1367188,1.3706055,1.7050781,3.4541016,1.7050781,6.2524414c0,5.0146484-1.9541016,12.7670898-5.8588867,23.2607422
		c10.5507812-21.0444336,20.8120117-31.5678711,30.78125-31.5678711c3.2050781,0,6.003418,1.0639648,8.3945312,3.1914062
		c2.3896484,2.1289062,3.5854492,5.2333984,3.5854492,9.3134766c0,2.6230469-1.1958008,7.5200195-3.5854492,14.690918
		l-9.3564453,27.8955078c-2.5073242,7.5205078-3.7602539,11.7177734-3.7602539,12.5917969
		c0,1.1083984,0.2758789,1.9394531,0.8305664,2.4921875c0.5532227,0.5546875,1.3554688,0.8310547,2.4047852,0.8310547
		c1.980957,0,4.1098633-1.1220703,6.3837891-3.3671875C208.7167969,141.2119141,211.1352539,137.8740234,213.7011719,133.4433594z"
		/>
	<path fill="#707070" stroke="#e1e1e1" d="M262.2304688,130.7324219h4.1977539c-2.7412109,5.6552734-6.3110352,10.6679688-10.7124023,15.0400391
		c-4.4023438,4.3730469-8.6435547,6.5585938-12.7231445,6.5585938c-2.7412109,0-5.1459961-0.9765625-7.2143555-2.9287109
		c-2.0703125-1.953125-3.1044922-4.8232422-3.1044922-8.6142578c0-3.0888672,1.6313477-9.0068359,4.8969727-17.7509766
		l10.0561523-26.6713867C249.9580078,90.128418,251.125,86.3393555,251.125,84.9975586
		c0-1.1655273-0.2773438-2.0400391-0.8305664-2.6235352C249.7397461,81.7919922,248.9086914,81.5,247.8022461,81.5
		c-2.2739258,0-4.9711914,1.7636719-8.0888672,5.2900391c-3.1196289,3.5283203-5.3208008,6.7197266-6.6025391,9.5756836h-4.1972656
		c3.2055664-6.3535156,6.8647461-11.3681641,10.9746094-15.0410156c4.1098633-3.6723633,7.9423828-5.5087891,11.4990234-5.5087891
		c2.7397461,0,4.984375,0.9331055,6.7333984,2.7983398c1.7490234,1.8662109,2.6235352,4.3149414,2.6235352,7.3452148
		c0,3.0908203-1.5454102,8.7446289-4.6347656,16.9648438l-8.3945312,22.7358398
		c-3.0908203,8.2197266-4.6347656,13.3789062-4.6347656,15.4775391c0,1.6923828,0.3344727,2.9599609,1.0053711,3.8046875
		c0.6694336,0.8457031,1.6464844,1.2675781,2.9296875,1.2675781
		C251.3286133,146.2099609,256.4003906,141.0507812,262.2304688,130.7324219z M255.7597656,37.2519531
		c0-2.0986328,0.7431641-3.8916016,2.2299805-5.3779297c1.4863281-1.4868164,3.2792969-2.2299805,5.3779297-2.2299805
		s3.8911133,0.7431641,5.3779297,2.2299805c1.4863281,1.4863281,2.2299805,3.2792969,2.2299805,5.3779297
		s-0.7436523,3.90625-2.2299805,5.4213867c-1.4868164,1.5170898-3.2792969,2.2739258-5.3779297,2.2739258
		c-2.1577148,0-3.965332-0.7719727-5.421875-2.3173828C256.487793,41.0859375,255.7597656,39.293457,255.7597656,37.2519531z"/>
	<path fill="#707070" stroke="#e1e1e1" d="M311.3754883,130.6445312c0,5.421875-2.0849609,10.3925781-6.2524414,14.9101562
		c-4.1689453,4.5166016-10.3051758,6.7763672-18.4077148,6.7763672c-6.0048828,0-10.5083008-1.3261719-13.5102539-3.9785156
		c-3.003418-2.6523438-4.503418-5.4941406-4.503418-8.5263672c0-1.6308594,0.4506836-3.0302734,1.3554688-4.1972656
		c0.902832-1.1650391,2.0546875-1.7490234,3.4541016-1.7490234c3.1479492,0,4.722168,1.6621094,4.722168,4.984375
		c0,0.7587891-0.1748047,1.8369141-0.5249023,3.2353516c-0.2333984,0.6425781-0.3496094,1.1376953-0.3496094,1.4873047
		c0,1.3984375,0.902832,2.609375,2.7109375,3.6289062c1.8061523,1.0205078,3.9633789,1.5302734,6.4707031,1.5302734
		c3.9052734,0,7.4619141-1.2382812,10.668457-3.7167969c3.2055664-2.4765625,4.8095703-5.9023438,4.8095703-10.2744141
		c0-3.7890625-2.2446289-9.7646484-6.7333984-17.9267578c-5.246582-9.4443359-7.8701172-16.3525391-7.8701172-20.7246094
		c0-5.5966797,2.2148438-10.3188477,6.6459961-14.1665039c4.4296875-3.8476562,9.4731445-5.7714844,15.128418-5.7714844
		c4.1386719,0,7.6801758,1.0493164,10.6245117,3.1479492c2.9433594,2.0986328,4.4160156,4.34375,4.4160156,6.7333984
		c0,3.0908203-1.2827148,4.6347656-3.8476562,4.6347656c-1.9238281,0-3.3227539-1.71875-4.1972656-5.1591797
		c-0.9331055-3.7890625-3.4692383-5.684082-7.6079102-5.684082c-3.3227539,0-6.2084961,0.9042969-8.6572266,2.7109375
		c-2.4482422,1.8076172-3.6728516,4.168457-3.6728516,7.0830078c0,3.965332,1.9526367,9.4155273,5.8588867,16.3525391
		c3.6728516,6.2958984,6.1352539,11.1054688,7.3891602,14.4287109
		C310.7480469,123.7363281,311.3754883,127.1464844,311.3754883,130.6445312z"/>
	<path fill="#707070" stroke="#e1e1e1" d="M372.5878906,78.2641602l-1.2241211,3.8476562h-13.1166992l-11.5429688,38.2143555
		c-3.8476562,12.5341797-5.7714844,19.8212891-5.7714844,21.8613281c0,1.3994141,0.3056641,2.4638672,0.9179688,3.1914062
		c0.6123047,0.7304688,1.5004883,1.09375,2.6669922,1.09375c2.0991211,0,4.8383789-1.9814453,8.2202148-5.9462891
		c3.3803711-3.9638672,6.4121094-8.9482422,9.0942383-14.9541016h3.8476562
		c-3.5566406,8.6875-7.6225586,15.3183594-12.1987305,19.8945312c-4.5771484,4.5761719-8.7597656,6.8642578-12.5483398,6.8642578
		c-2.9731445,0-5.3496094-1.0488281-7.1269531-3.1474609c-1.7792969-2.0986328-2.6669922-4.7509766-2.6669922-7.9580078
		c0-2.7392578,1.8061523-10.0263672,5.4213867-21.8613281l11.2807617-37.2524414h-12.0678711l1.2246094-3.8476562h11.9799805
		l8.0449219-26.4960938h10.4936523l-8.0449219,26.4960938H372.5878906z"/>
	<path fill="#707070" stroke="#e1e1e1" d="M385.2573242,99.4262695h-3.8476562c2.4487305-6.5283203,5.5229492-12.0961914,9.2255859-16.7021484
		c3.7016602-4.6044922,7.359375-6.9082031,10.9746094-6.9082031c2.5058594,0,4.3720703,1.0053711,5.5966797,3.0166016
		c1.2241211,2.0112305,1.8364258,5.0581055,1.8364258,9.1381836c0,5.0717773-1.3120117,12.3012695-3.9355469,21.6870117
		c0.3500977-0.5825195,1.3120117-2.6811523,2.8857422-6.2963867c4.3139648-9.7353516,8.1025391-16.7597656,11.3681641-21.074707
		c3.2646484-4.3134766,6.5283203-6.4707031,9.7939453-6.4707031c2.0400391,0,3.6728516,0.6420898,4.8974609,1.9238281
		c1.2236328,1.2827148,1.8359375,2.828125,1.8359375,4.6342773c0,1.7490234-0.5107422,3.1782227-1.5302734,4.2851562
		c-1.0205078,1.1079102-2.2294922,1.6616211-3.6289062,1.6616211c-1.5742188,0-3.1777344-0.9619141-4.8095703-2.8857422
		c-0.6425781-0.7573242-1.2832031-1.137207-1.9238281-1.137207c-2.9160156,0-7.4042969,7.0107422-13.4667969,21.03125
		c-6.0639648,14.0214844-10.9609375,27.2109375-14.690918,39.5693359l-1.9238281,6.2958984h-10.4936523l13.9038086-46.3461914
		c2.6235352-8.8608398,3.9355469-14.8662109,3.9355469-18.0141602c0-1.6899414-0.21875-2.9433594-0.65625-3.7602539
		c-0.4370117-0.8154297-1.0927734-1.2241211-1.9672852-1.2241211c-1.9238281,0-4.3286133,2.0698242-7.2143555,6.2084961
		C388.5366211,92.1982422,386.4814453,95.9873047,385.2573242,99.4262695z"/>
	<path fill="#707070" stroke="#e1e1e1" d="M436.9794922,126.8847656c0-6.9960938,1.6318359-14.6176758,4.8974609-22.8676758
		c3.2636719-8.2485352,7.9277344-14.9379883,13.9912109-20.0688477c6.0625-5.1293945,11.9501953-7.6953125,17.6640625-7.6953125
		c5.1884766,0,9.4580078,2.2011719,12.8115234,6.6020508c3.3515625,4.4023438,5.0273438,10.362793,5.0273438,17.8828125
		c0,9.0947266-1.8662109,17.7231445-5.5966797,25.8842773c-3.7314453,8.1621094-8.4091797,14.4150391-14.0341797,18.7568359
		c-5.6269531,4.34375-11.1494141,6.515625-16.5712891,6.515625c-4.8398438,0-9.0810547-1.8671875-12.7236328-5.5966797
		C438.8007812,142.5673828,436.9794922,136.0966797,436.9794922,126.8847656z M446.3369141,136.9404297
		c0,3.1484375,0.8154297,5.8300781,2.4482422,8.0449219c1.6308594,2.2167969,3.8759766,3.3232422,6.7333984,3.3232422
		c7.8115234,0,14.2382812-7.4023438,19.2822266-22.2109375c5.0410156-14.8076172,7.5634766-26.1166992,7.5634766-33.9296875
		c0-4.0224609-0.7734375-7.0390625-2.3173828-9.050293c-1.5449219-2.0112305-3.8623047-3.0170898-6.9521484-3.0170898
		c-7.2880859,0-13.5683594,6.8647461-18.8447266,20.59375S446.3369141,126.5058594,446.3369141,136.9404297z"/>
	<path fill="#707070" stroke="#e1e1e1" d="M545.4970703,125.0478516h3.4980469c-2.8574219,8.3378906-6.8505859,14.96875-11.9804688,19.8945312
		c-5.1298828,4.9267578-10.4648438,7.3886719-16.0019531,7.3886719c-4.6650391,0-8.4384766-1.7636719-11.3242188-5.2900391
		s-4.3291016-8.4960938-4.3291016-14.9101562c0-7.5205078,1.9375-15.7250977,5.8154297-24.6157227
		c3.8759766-8.8896484,9.3261719-16.3964844,16.3525391-22.5175781c7.0244141-6.1210938,13.2177734-9.1816406,18.5820312-9.1816406
		c3.0898438,0,5.7128906,0.9916992,7.8701172,2.9731445c2.15625,1.9824219,3.2353516,4.3720703,3.2353516,7.1704102
		c0,4.1401367-1.6611328,6.2084961-4.984375,6.2084961c-3.3818359,0-5.1591797-2.3022461-5.3339844-6.9082031
		c-0.1171875-3.4389648-1.4296875-5.1591797-3.9355469-5.1591797c-3.2646484,0-7.0537109,3.0170898-11.3671875,9.0507812
		c-4.3154297,6.0336914-8.0166016,14.0786133-11.1064453,24.1352539
		c-3.0898438,10.0561523-4.6347656,17.7075195-4.6347656,22.9545898c0,3.3232422,0.8447266,5.9765625,2.5361328,7.9580078
		c1.6904297,1.9824219,3.7304688,2.9726562,6.1210938,2.9726562c3.4394531,0,7.1845703-1.9960938,11.2373047-5.9902344
		C539.7978516,137.1894531,543.0488281,131.8115234,545.4970703,125.0478516z"/>
	<path fill="#707070" stroke="#e1e1e1" d="M631.2783203,131.8691406h3.6728516c-4.9550781,13.6416016-11.6601562,20.4619141-20.1123047,20.4619141
		c-2.8574219,0-5-0.7871094-6.4277344-2.3603516c-1.4287109-1.5742188-2.1425781-3.9355469-2.1425781-7.0839844
		c0-4.4296875,1.5742188-11.5126953,4.7226562-21.2490234c-10.203125,20.4619141-20.2880859,30.6933594-30.2568359,30.6933594
		c-3.6728516,0-6.5585938-1.1367188-8.6572266-3.4101562s-3.1474609-5.1005859-3.1474609-8.4824219
		c0-3.3232422,1.3115234-8.8320312,3.9345703-16.5273438l10.7558594-31.3930664
		c1.5742188-4.6635742,2.3613281-7.4619141,2.3613281-8.3950195c0-1.5151367-0.7587891-2.2734375-2.2734375-2.2734375
		c-3.6728516,0-7.6953125,4.9267578-12.0673828,14.7783203h-4.1982422
		c2.3310547-6.1210938,5.3916016-11.1191406,9.1826172-14.9970703c3.7880859-3.8764648,7.5205078-5.8149414,11.1923828-5.8149414
		c2.2744141,0,4.2119141,0.7143555,5.8154297,2.1420898c1.6025391,1.4291992,2.4052734,3.5717773,2.4052734,6.4272461
		c0,2.0415039-1.0205078,6.121582-3.0605469,12.2426758l-11.0185547,32.3554688
		c-2.0986328,6.2958984-3.1484375,10.4355469-3.1484375,12.4169922c0,1.8076172,0.4072266,3.1787109,1.2246094,4.1103516
		c0.8154297,0.9326172,2.0107422,1.3984375,3.5849609,1.3984375c5.1298828,0,11.2216797-5.4501953,18.2763672-16.3515625
		c7.0537109-10.9013672,13.8164062-27.1088867,20.2880859-48.6206055l1.4863281-4.984375h10.4931641l-15.3027344,50.1938477
		c-2.4482422,8.1630859-3.6728516,13.0888672-3.6728516,14.7783203c0,1.4580078,0.2910156,2.5517578,0.8740234,3.2792969
		c0.5830078,0.7294922,1.4570312,1.09375,2.6240234,1.09375
		C623.1162109,146.2978516,627.3134766,141.4882812,631.2783203,131.8691406z"/>
	<path fill="#707070" stroke="#e1e1e1" d="M679.3710938,128.8955078h3.8476562c-5.9462891,15.6240234-13.5839844,23.4355469-22.9111328,23.4355469
		c-3.2070312,0-5.7714844-1.0644531-7.6953125-3.1914062c-1.9238281-2.1279297-2.8857422-4.7949219-2.8857422-8.0019531
		c0-3.1474609,1.8935547-10.9306641,5.6835938-23.3476562L675.8730469,50.28125
		c1.7490234-5.7124023,2.6230469-9.0356445,2.6230469-9.96875c0-1.3989258-0.3935547-2.3896484-1.1796875-2.9731445
		c-0.7871094-0.5820312-2.7548828-0.8745117-5.9033203-0.8745117h-3.4101562l1.1367188-3.6728516
		c9.6191406-0.1748047,16.7021484-1.2241211,21.25-3.1479492h2.1855469l-28.1572266,92.6928711
		c-0.4091797,1.4580078-1.2548828,4.1103516-2.5361328,7.9580078c-1.6914062,5.0722656-2.5361328,8.9199219-2.5361328,11.5429688
		c0,1.7490234,0.3349609,3.0605469,1.0058594,3.9345703c0.6689453,0.875,1.6748047,1.3125,3.0166016,1.3125
		c1.9814453,0,4.4599609-1.3691406,7.4326172-4.1103516C673.7744141,140.2353516,676.6298828,135.5419922,679.3710938,128.8955078z"
		/>
	<path fill="#707070" stroke="#e1e1e1" d="M752.7314453,77.1274414h10.4931641l-15.5654297,51.2436523
		c-2.2734375,7.4042969-3.4101562,11.8925781-3.4101562,13.4667969c0,1.1669922,0.2626953,2.0546875,0.7871094,2.6669922
		s1.3115234,0.9179688,2.3613281,0.9179688c4.0224609,0,8.6572266-4.6044922,13.9033203-13.8164062h3.6728516
		c-2.2734375,5.2470703-5.5244141,10.0126953-9.75,14.2978516c-4.2275391,4.2841797-8.1191406,6.4267578-11.6738281,6.4267578
		c-2.7412109,0-4.8398438-1.0205078-6.296875-3.0605469c-1.4580078-2.0400391-2.1855469-4.546875-2.1855469-7.5205078
		c0-2.3896484,0.5820312-5.5087891,1.7490234-9.3564453c-2.6240234,4.4902344-6.4277344,8.9345703-11.4121094,13.3359375
		c-4.984375,4.4003906-9.6630859,6.6015625-14.0351562,6.6015625c-4.0810547,0-7.59375-1.7353516-10.5371094-5.203125
		c-2.9443359-3.4677734-4.4160156-8.1455078-4.4160156-14.0351562c0-7.9267578,2.2734375-16.4243164,6.8203125-25.4902344
		c4.5478516-9.0644531,10.4785156-16.628418,17.7958984-22.6923828c7.3154297-6.0625,13.5673828-9.0942383,18.7568359-9.0942383
		c3.0302734,0,5.4355469,0.7294922,7.2148438,2.1860352c1.7773438,1.4580078,2.9580078,3.644043,3.5410156,6.5585938
		L752.7314453,77.1274414z M706.9970703,135.7167969c0,3.8476562,0.5820312,6.7480469,1.7490234,8.7001953
		c1.1650391,1.9541016,2.9140625,2.9296875,5.2460938,2.9296875c3.8476562,0,8.4677734-2.8271484,13.8603516-8.4824219
		c5.3916016-5.6533203,10.0703125-14.3105469,14.0351562-25.9711914
		c3.9638672-11.6591797,5.9462891-19.5878906,5.9462891-23.7856445c0-2.4482422-0.6269531-4.5322266-1.8798828-6.2524414
		c-1.2539062-1.71875-3.046875-2.5795898-5.3779297-2.5795898c-7.1132812,0-14.4873047,7.0258789-22.1240234,21.074707
		C710.8144531,115.4003906,706.9970703,126.8554688,706.9970703,135.7167969z"/>
	<path fill="#707070" stroke="#e1e1e1" d="M785.0761719,99.4262695h-3.8476562c2.4482422-6.5283203,5.5224609-12.0961914,9.2255859-16.7021484
		c3.7011719-4.6044922,7.3583984-6.9082031,10.9736328-6.9082031c2.5058594,0,4.3730469,1.0053711,5.5966797,3.0166016
		c1.2246094,2.0112305,1.8369141,5.0581055,1.8369141,9.1381836c0,5.0717773-1.3115234,12.3012695-3.9355469,21.6870117
		c0.3496094-0.5825195,1.3115234-2.6811523,2.8857422-6.2963867c4.3134766-9.7353516,8.1025391-16.7597656,11.3681641-21.074707
		c3.2646484-4.3134766,6.5283203-6.4707031,9.7939453-6.4707031c2.0400391,0,3.6728516,0.6420898,4.8974609,1.9238281
		c1.2236328,1.2827148,1.8359375,2.828125,1.8359375,4.6342773c0,1.7490234-0.5107422,3.1782227-1.5302734,4.2851562
		c-1.0205078,1.1079102-2.2294922,1.6616211-3.6289062,1.6616211c-1.5742188,0-3.1777344-0.9619141-4.8095703-2.8857422
		c-0.6425781-0.7573242-1.2832031-1.137207-1.9238281-1.137207c-2.9160156,0-7.4042969,7.0107422-13.4667969,21.03125
		c-6.0634766,14.0214844-10.9609375,27.2109375-14.6914062,39.5693359l-1.9238281,6.2958984h-10.4931641l13.9042969-46.3461914
		c2.6230469-8.8608398,3.9345703-14.8662109,3.9345703-18.0141602c0-1.6899414-0.21875-2.9433594-0.6552734-3.7602539
		c-0.4375-0.8154297-1.09375-1.2241211-1.9677734-1.2241211c-1.9238281,0-4.3291016,2.0698242-7.2148438,6.2084961
		C788.3544922,92.1982422,786.2998047,95.9873047,785.0761719,99.4262695z"/>
</g>
<g>
</g>
<g>
</g>
<g>
</g>
<g>
</g>
<g>
</g>
<g>
</g>
<g>
</g>
<g>
</g>
<g>
</g>
<g>
</g>
<g>
</g>
<g>
</g>
<g>
</g>
<g>
</g>
<g>
</g>
</svg>
