<?xml version="1.0" encoding="utf-8"?>
<!-- Generator: Adobe Illustrator 20.0.0, SVG Export Plug-In . SVG Version: 6.00 Build 0)  -->
<svg version="1.1" id="logo" xmlns="http://www.w3.org/2000/svg" xmlns:xlink="http://www.w3.org/1999/xlink" x="0px" y="0px"
	 viewBox="0 0 104.4811935 122.4951935" enable-background="new 0 0 104.4811935 122.4951935" xml:space="preserve">
<path fill="none" stroke="#bebebe" stroke-width="2" stroke-miterlimit="10" d="M54.9636879,106.216835
	c-3.5900269,1.1699829-7.3099976,1.789978-11.1000366,1.789978c-16.4899883,0-28.5999737-8.0799561-35.9799805-20.7399902
	C3.9736996,78.426857,1.6236628,68.3968277,1.3636531,57.8268166C0.6436824,29.0668068,21.6936703,1.1968123,50.7136879,1.1968123
	c0.539978,0,1.0799561,0.0100098,1.6199951,0.0300293C27.5136776,1.9668318,15.20368,19.016819,13.2136898,48.5068092
	C11.6536922,71.426857,29.4836483,101.8668594,54.9636879,106.216835z"/>
<path display="none" fill="none" stroke="#bebebe" stroke-miterlimit="10" d="M90.7936478,50.2468605
	c0,26.2199745-15.8399658,49.5000038-35.8299599,55.9699745c-3.5900269,1.1699829-7.3099976,1.789978-11.1000366,1.789978
	c-16.4899883,0-28.5999737-8.0799561-35.9799805-20.7399902C3.9736996,78.426857,1.6236628,68.3968277,1.3636531,57.8268166
	C0.6436824,29.0668068,21.6936703,1.1968123,50.7136879,1.1968123c0.539978,0,1.0799561,0.0100098,1.6199951,0.0300293
	c3.6799927,0.1099854,7.2699585,0.5999756,10.7199707,1.4500121C78.9336624,10.7368517,90.7936478,28.0868263,90.7936478,50.2468605
	z"/>
<path fill="none" stroke="#bebebe" stroke-width="2" stroke-miterlimit="10" d="M102.9536819,59.2568092
	c0,13.8600502-3.4799805,26.5700111-9.5300293,36.8300209c-9.0499878,15.3900146-23.8599854,25.2700195-41.2599525,25.2700195
	c-18.5,0-35.4000244-13.9500122-44.2800293-34.0900269c7.3800049,12.6600342,19.4899902,20.7399902,35.9799805,20.7399902
	c3.7900391,0,7.5100098-0.6199951,11.1000366-1.789978c19.989994-6.4699707,35.8299599-29.75,35.8299599-55.9699745
	c0-22.1600342-11.8599854-39.5100098-27.739994-47.5700073C86.1236649,7.496861,102.9536819,29.6968117,102.9536819,59.2568092z"/>
<path display="none" fill="none" stroke="#bebebe" stroke-miterlimit="10" d="M90.7936478,50.2468605
	c0,26.2199745-15.8399658,49.5000038-35.8299599,55.9699745c-3.5900269,1.1699829-7.3099976,1.789978-11.1000366,1.789978
	c-16.4899883,0-28.5999737-8.0799561-35.9799805-20.7399902C3.9736996,78.426857,1.6236628,68.3968277,1.3636531,57.8268166
	C0.6436824,29.0668068,21.6936703,1.1968123,50.7136879,1.1968123c0.539978,0,1.0799561,0.0100098,1.6199951,0.0300293
	c3.6799927,0.1099854,7.2699585,0.5999756,10.7199707,1.4500121C78.9336624,10.7368517,90.7936478,28.0868263,90.7936478,50.2468605
	z"/>
<path fill="none" stroke="#bebebe" stroke-width="2" stroke-miterlimit="10" d="M61.7536659,2.3768048
	c-3.0499878-0.6699828-6.2000122-1.0499877-9.4199829-1.1499633C55.043644,1.1468245,58.5936928,1.666844,61.7536659,2.3768048z"/>
<path display="none" fill="none" stroke="#bebebe" stroke-miterlimit="10" d="M90.7936478,50.2468605
	c0,26.2199745-15.8399658,49.5000038-35.8299599,55.9699745c-3.5900269,1.1699829-7.3099976,1.789978-11.1000366,1.789978
	c-16.4899883,0-28.5999737-8.0799561-35.9799805-20.7399902C3.9736996,78.426857,1.6236628,68.3968277,1.3636531,57.8268166
	C0.6436824,29.0668068,21.6936703,1.1968123,50.7136879,1.1968123c0.539978,0,1.0799561,0.0100098,1.6199951,0.0300293
	c3.6799927,0.1099854,7.2699585,0.5999756,10.7199707,1.4500121C78.9336624,10.7368517,90.7936478,28.0868263,90.7936478,50.2468605
	z"/>
</svg>
