<?xml version="1.0" encoding="utf-8"?>
<!-- Generator: Adobe Illustrator 20.0.0, SVG Export Plug-In . SVG Version: 6.00 Build 0)  -->
<svg version="1.1" xmlns="http://www.w3.org/2000/svg" xmlns:xlink="http://www.w3.org/1999/xlink" x="0px" y="0px"
	 viewBox="0 0 257.0883789 391.0603943" enable-background="new 0 0 257.0883789 391.0603943" xml:space="preserve">
<g id="logo">
	<path fill="none" stroke="#000000" stroke-width="4.9627156" stroke-miterlimit="10" d="M135.5266876,263.1750488
		c-8.9081421,2.9031677-18.1387177,4.4415894-27.5431595,4.4415894c-40.9175644,0-70.9667664-20.0492706-89.2792053-51.4633331
		C9.002285,194.2181854,3.1710033,169.3300934,2.525826,143.1021118
		C0.7393213,71.7382431,52.9718704,2.5828142,124.9809189,2.5828142c1.3398743,0,2.6797562,0.0248377,4.019783,0.0745134
		c-61.5873108,1.8361802-92.1328125,44.1432953-97.070694,117.318512
		C28.0590935,176.8486786,72.30159,252.3812103,135.5266876,263.1750488z"/>
	<path display="none" fill="none" stroke="#000000" stroke-miterlimit="10" d="M167.1881409,140.6328583
		c0,26.219986-15.8399658,49.5000153-35.8299713,55.969986c-3.5900192,1.1699829-7.3099899,1.789978-11.100029,1.789978
		c-16.4899902,0-28.5999756-8.0799561-35.9799805-20.7399902c-3.9099731-8.8399658-6.2600098-18.8699951-6.5200195-29.4400177
		c-0.7199707-28.7600021,20.3300171-56.6299973,49.3500366-56.6299973c0.539978,0,1.0799484,0.0100098,1.6199875,0.0300293
		c3.6799927,0.1099854,7.2699585,0.5999756,10.7199707,1.4500122
		C155.3281555,101.1228561,167.1881409,118.4728317,167.1881409,140.6328583z"/>
	<path fill="none" stroke="#000000" stroke-width="4.9627156" stroke-miterlimit="10" d="M254.6070251,146.6504364
		c0,34.3917389-8.6350708,65.9297028-23.6474152,91.3884583c-22.4562531,38.1881256-59.2051544,62.7039642-102.3806915,62.7039642
		c-45.9051208,0-87.840126-34.6149902-109.8745956-84.5895538c18.3124313,31.4140625,48.3616409,51.4633331,89.2792053,51.4633331
		c9.4044418,0,18.6350174-1.5384216,27.5431595-4.4415894c49.6023254-16.054306,88.9069519-73.8203888,88.9069519-138.8815155
		c0-54.9869766-29.4288788-98.0384674-68.8328552-118.038208C212.8457336,18.2154884,254.6070251,73.301506,254.6070251,146.6504364
		z"/>
	<path display="none" fill="none" stroke="#000000" stroke-miterlimit="10" d="M167.1881409,140.6328583
		c0,26.219986-15.8399658,49.5000153-35.8299713,55.969986c-3.5900192,1.1699829-7.3099899,1.789978-11.100029,1.789978
		c-16.4899902,0-28.5999756-8.0799561-35.9799805-20.7399902c-3.9099731-8.8399658-6.2600098-18.8699951-6.5200195-29.4400177
		c-0.7199707-28.7600021,20.3300171-56.6299973,49.3500366-56.6299973c0.539978,0,1.0799484,0.0100098,1.6199875,0.0300293
		c3.6799927,0.1099854,7.2699585,0.5999756,10.7199707,1.4500122
		C155.3281555,101.1228561,167.1881409,118.4728317,167.1881409,140.6328583z"/>
	<path fill="none" stroke="#000000" stroke-width="4.9627156" stroke-miterlimit="10" d="M152.3750458,5.510798
		c-7.5681-1.6624672-15.3844452-2.6053953-23.3743439-2.8534703C135.7250824,2.4587765,144.5340271,3.749131,152.3750458,5.510798z"
		/>
	<path display="none" fill="none" stroke="#000000" stroke-miterlimit="10" d="M167.1881409,140.6328583
		c0,26.219986-15.8399658,49.5000153-35.8299713,55.969986c-3.5900192,1.1699829-7.3099899,1.789978-11.100029,1.789978
		c-16.4899902,0-28.5999756-8.0799561-35.9799805-20.7399902c-3.9099731-8.8399658-6.2600098-18.8699951-6.5200195-29.4400177
		c-0.7199707-28.7600021,20.3300171-56.6299973,49.3500366-56.6299973c0.539978,0,1.0799484,0.0100098,1.6199875,0.0300293
		c3.6799927,0.1099854,7.2699585,0.5999756,10.7199707,1.4500122
		C155.3281555,101.1228561,167.1881409,118.4728317,167.1881409,140.6328583z"/>
</g>
<g id="Layer_2">
	<g>
		<path d="M37.7094269,379.7278137h0.8256836c0.1337891,3.0478516,0.8486328,5.2392578,2.144043,6.5742188
			c1.2954102,1.3359375,2.7890625,2.0039062,4.4804688,2.0039062c1.4360352,0,2.6811523-0.4804688,3.7348633-1.4404297
			c1.0537109-0.9589844,1.5805664-2.1572266,1.5805664-3.59375c0-1.046875-0.2348633-1.9902344-0.7045898-2.8291016
			c-0.4702148-0.8388672-1.3085938-1.8222656-2.5170898-2.9501953c-1.9462891-1.8388672-3.2651367-3.3222656-3.956543-4.4492188
			c-0.6914062-1.1279297-1.0366211-2.4433594-1.0366211-3.9472656c0-2.09375,0.7514648-3.953125,2.2548828-5.5771484
			s3.2285156-2.4365234,5.1748047-2.4365234c2.2817383,0,3.9868164,1.1552734,5.1142578,3.4638672
			c0.550293-0.8730469,0.9667969-1.8662109,1.2485352-2.9804688h0.8256836l-1.0673828,8.0136719h-0.9057617
			c-0.0136719-1.9052734-0.2719727-3.3789062-0.7753906-4.4199219c-0.503418-1.0400391-1.1479492-1.8320312-1.9331055-2.3759766
			c-0.7851562-0.5429688-1.6542969-0.8154297-2.6074219-0.8154297c-1.409668,0-2.5371094,0.5410156-3.3828125,1.6210938
			c-0.8457031,1.0810547-1.2685547,2.3125-1.2685547,3.6953125c0,1.1269531,0.2885742,2.1103516,0.8657227,2.9492188
			c0.5771484,0.8398438,1.6845703,2.0107422,3.3222656,3.5136719c1.90625,1.7587891,3.1010742,3.2021484,3.5844727,4.3291016
			c0.4829102,1.1279297,0.7246094,2.2695312,0.7246094,3.4238281c0,2.2822266-0.8251953,4.1611328-2.4765625,5.6376953
			c-1.6508789,1.4765625-3.503418,2.2148438-5.5571289,2.2148438c-2.4702148,0-4.578125-1.1943359-6.3227539-3.5839844
			c-0.6176758,0.8183594-1.0673828,1.7451172-1.3491211,2.7783203h-1.0068359L37.7094269,379.7278137z"/>
		<path d="M65.0917511,384.4602356h0.9667969c-0.6313477,1.3017578-1.453125,2.4560547-2.4667969,3.4628906
			s-1.9902344,1.5097656-2.9296875,1.5097656c-0.6308594,0-1.1845703-0.2246094-1.6611328-0.6738281
			c-0.4765625-0.4501953-0.7148438-1.1113281-0.7148438-1.9833984c0-0.7119141,0.3754883-2.0742188,1.1274414-4.0878906
			l2.315918-6.1416016c0.5366211-1.4355469,0.8051758-2.3085938,0.8051758-2.6171875
			c0-0.2685547-0.0639648-0.4697266-0.1914062-0.6044922c-0.1274414-0.1337891-0.3188477-0.2011719-0.5737305-0.2011719
			c-0.5234375,0-1.1445312,0.40625-1.8623047,1.21875c-0.7182617,0.8115234-1.2250977,1.546875-1.5205078,2.2041016h-0.9663086
			c0.7382812-1.4628906,1.5805664-2.6171875,2.5268555-3.4628906s1.8291016-1.2685547,2.6479492-1.2685547
			c0.6308594,0,1.1474609,0.2148438,1.550293,0.6445312s0.6040039,0.9931641,0.6040039,1.6914062
			c0,0.7109375-0.3554688,2.0136719-1.0668945,3.90625l-1.9331055,5.2353516
			c-0.7119141,1.8925781-1.0673828,3.0800781-1.0673828,3.5634766c0,0.3896484,0.0771484,0.6816406,0.2319336,0.8759766
			c0.1538086,0.1943359,0.3789062,0.2919922,0.6743164,0.2919922
			C62.5814972,388.0237122,63.7494659,386.8362122,65.0917511,384.4602356z M63.602005,362.934845
			c0-0.4833984,0.1708984-0.8955078,0.5131836-1.2382812c0.3422852-0.3417969,0.7553711-0.5136719,1.2382812-0.5136719
			c0.4833984,0,0.8964844,0.171875,1.2387695,0.5136719c0.3422852,0.3427734,0.5131836,0.7548828,0.5131836,1.2382812
			s-0.1708984,0.8994141-0.5131836,1.2480469c-0.3422852,0.3496094-0.7553711,0.5244141-1.2387695,0.5244141
			c-0.496582,0-0.9125977-0.1777344-1.2480469-0.5341797C63.7694855,363.8176575,63.602005,363.4045715,63.602005,362.934845z"/>
		<path d="M84.7216339,385.084259h1.0268555c-0.8051758,1.4492188-1.6279297,2.5371094-2.4663086,3.2617188
			c-0.8393555,0.7246094-1.6948242,1.0869141-2.5673828,1.0869141c-0.6040039,0-1.1245117-0.1845703-1.5605469-0.5537109
			c-0.4365234-0.3691406-0.6542969-0.9160156-0.6542969-1.640625c0-0.6044922,0.3085938-1.7988281,0.9262695-3.5839844
			l2.1542969-6.1416016c0.5771484-1.6777344,0.8657227-2.7646484,0.8657227-3.2617188
			c0-0.4433594-0.097168-0.7714844-0.2919922-0.9863281s-0.4931641-0.3222656-0.8959961-0.3222656
			c-1.0200195,0-2.3525391,1.1972656-3.996582,3.59375c-1.6445312,2.3964844-3.0576172,5.5341797-4.2387695,9.4130859
			l-0.9863281,3.2216797h-2.456543l3.543457-11.4365234c0.6445312-2.1074219,0.9667969-3.3154297,0.9667969-3.625
			c0-0.2275391-0.0405273-0.3955078-0.1210938-0.5029297s-0.2080078-0.1611328-0.3823242-0.1611328
			c-0.7924805,0-1.7319336,0.9804688-2.8188477,2.9394531h-0.9262695c1.6777344-3.046875,3.2685547-4.5703125,4.7719727-4.5703125
			c0.5234375,0,0.9160156,0.1582031,1.1777344,0.4726562c0.2617188,0.3164062,0.3925781,0.7958984,0.3925781,1.4404297
			c0,1.1542969-0.449707,2.9394531-1.3486328,5.3554688c2.4291992-4.8457031,4.7919922-7.2685547,7.0874023-7.2685547
			c0.7382812,0,1.3823242,0.2451172,1.9331055,0.7353516c0.550293,0.4892578,0.8256836,1.2041016,0.8256836,2.1435547
			c0,0.6044922-0.2753906,1.7324219-0.8256836,3.3828125l-2.1547852,6.4238281
			c-0.5771484,1.7314453-0.8657227,2.6982422-0.8657227,2.8994141c0,0.2548828,0.0634766,0.4462891,0.1914062,0.5732422
			c0.1274414,0.1279297,0.3120117,0.1914062,0.5537109,0.1914062c0.4560547,0,0.9462891-0.2578125,1.4697266-0.7744141
			C83.574173,386.8733215,84.1308136,386.1037903,84.7216339,385.084259z"/>
		<path d="M95.8959503,384.4602356h0.9667969c-0.6313477,1.3017578-1.453125,2.4560547-2.4667969,3.4628906
			s-1.9902344,1.5097656-2.9296875,1.5097656c-0.6308594,0-1.1845703-0.2246094-1.6611328-0.6738281
			c-0.4765625-0.4501953-0.7148438-1.1113281-0.7148438-1.9833984c0-0.7119141,0.3754883-2.0742188,1.1274414-4.0878906
			l2.315918-6.1416016c0.5366211-1.4355469,0.8051758-2.3085938,0.8051758-2.6171875
			c0-0.2685547-0.0639648-0.4697266-0.1914062-0.6044922c-0.1274414-0.1337891-0.3188477-0.2011719-0.5737305-0.2011719
			c-0.5234375,0-1.1445312,0.40625-1.8623047,1.21875c-0.7182617,0.8115234-1.2250977,1.546875-1.5205078,2.2041016h-0.9663086
			c0.7382812-1.4628906,1.5805664-2.6171875,2.5268555-3.4628906s1.8291016-1.2685547,2.6479492-1.2685547
			c0.6308594,0,1.1474609,0.2148438,1.550293,0.6445312s0.6040039,0.9931641,0.6040039,1.6914062
			c0,0.7109375-0.3554688,2.0136719-1.0668945,3.90625l-1.9331055,5.2353516
			c-0.7119141,1.8925781-1.0673828,3.0800781-1.0673828,3.5634766c0,0.3896484,0.0771484,0.6816406,0.2319336,0.8759766
			c0.1538086,0.1943359,0.3789062,0.2919922,0.6743164,0.2919922
			C93.3856964,388.0237122,94.5536652,386.8362122,95.8959503,384.4602356z M94.4062042,362.934845
			c0-0.4833984,0.1708984-0.8955078,0.5131836-1.2382812c0.3422852-0.3417969,0.7553711-0.5136719,1.2382812-0.5136719
			c0.4833984,0,0.8964844,0.171875,1.2387695,0.5136719c0.3422852,0.3427734,0.5131836,0.7548828,0.5131836,1.2382812
			s-0.1708984,0.8994141-0.5131836,1.2480469c-0.3422852,0.3496094-0.7553711,0.5244141-1.2387695,0.5244141
			c-0.496582,0-0.9125977-0.1777344-1.2480469-0.5341797C94.5736847,363.8176575,94.4062042,363.4045715,94.4062042,362.934845z"/>
		<path d="M107.2118683,384.4397278c0,1.2480469-0.4799805,2.3925781-1.4394531,3.4326172
			c-0.9599609,1.0400391-2.3730469,1.5605469-4.2387695,1.5605469c-1.3828125,0-2.4194336-0.3056641-3.1108398-0.9160156
			s-1.0371094-1.2646484-1.0371094-1.9628906c0-0.3759766,0.1040039-0.6982422,0.3125-0.9667969
			c0.2075195-0.2685547,0.4731445-0.4023438,0.7949219-0.4023438c0.7250977,0,1.0874023,0.3828125,1.0874023,1.1474609
			c0,0.1748047-0.0400391,0.4228516-0.1206055,0.7451172c-0.0537109,0.1474609-0.0805664,0.2617188-0.0805664,0.3417969
			c0,0.3222656,0.2080078,0.6015625,0.6240234,0.8359375c0.4160156,0.2353516,0.9125977,0.3525391,1.4902344,0.3525391
			c0.8989258,0,1.7182617-0.2851562,2.456543-0.8554688c0.737793-0.5703125,1.1074219-1.359375,1.1074219-2.3662109
			c0-0.8720703-0.5170898-2.2480469-1.550293-4.1279297c-1.2084961-2.1748047-1.8125-3.765625-1.8125-4.7724609
			c0-1.2880859,0.5102539-2.3759766,1.5302734-3.2617188s2.1811523-1.3291016,3.4833984-1.3291016
			c0.953125,0,1.7685547,0.2421875,2.4467773,0.7255859c0.6777344,0.4833984,1.0166016,1,1.0166016,1.5498047
			c0,0.7119141-0.2954102,1.0673828-0.8857422,1.0673828c-0.4433594,0-0.7651367-0.3955078-0.9667969-1.1875
			c-0.2148438-0.8730469-0.7988281-1.3095703-1.7514648-1.3095703c-0.7651367,0-1.4296875,0.2089844-1.9936523,0.625
			s-0.8457031,0.9599609-0.8457031,1.6308594c0,0.9130859,0.449707,2.1679688,1.3491211,3.7646484
			c0.8457031,1.4501953,1.4125977,2.5576172,1.7016602,3.3222656
			C107.067337,382.8489075,107.2118683,383.6340637,107.2118683,384.4397278z"/>
		<path d="M121.3065948,372.3782043l-0.2817383,0.8867188h-3.0200195l-2.6582031,8.7988281
			c-0.8857422,2.8857422-1.3286133,4.5644531-1.3286133,5.0341797c0,0.3212891,0.0703125,0.5664062,0.2114258,0.734375
			c0.140625,0.1679688,0.3452148,0.2519531,0.6137695,0.2519531c0.4833984,0,1.1142578-0.4560547,1.8930664-1.3691406
			c0.7783203-0.9130859,1.4760742-2.0605469,2.09375-3.4433594h0.8862305c-0.8188477,2-1.7553711,3.5273438-2.809082,4.5810547
			s-2.0170898,1.5800781-2.8891602,1.5800781c-0.6850586,0-1.2319336-0.2412109-1.6411133-0.7246094
			c-0.409668-0.4833984-0.6142578-1.09375-0.6142578-1.8320312c0-0.6308594,0.4160156-2.3085938,1.2485352-5.0341797
			l2.597168-8.5771484h-2.7783203l0.2817383-0.8867188h2.7583008l1.8525391-6.1005859h2.4165039l-1.8525391,6.1005859H121.3065948z"
			/>
		<path d="M124.2240753,377.2512512h-0.8857422c0.5634766-1.5029297,1.2714844-2.7851562,2.1240234-3.8457031
			s1.6938477-1.5908203,2.527832-1.5908203c0.5761719,0,1.0058594,0.2314453,1.2871094,0.6943359
			c0.2832031,0.4638672,0.4238281,1.1650391,0.4238281,2.1044922c0,1.1679688-0.3027344,2.8320312-0.90625,4.9931641
			c0.0800781-0.1337891,0.3027344-0.6171875,0.6640625-1.4492188c0.9941406-2.2421875,1.8652344-3.859375,2.6171875-4.8525391
			s1.5039062-1.4902344,2.2558594-1.4902344c0.4707031,0,0.8457031,0.1474609,1.1269531,0.4433594
			c0.2832031,0.2949219,0.4238281,0.6503906,0.4238281,1.0664062c0,0.4033203-0.1171875,0.7324219-0.3535156,0.9873047
			c-0.234375,0.2548828-0.5117188,0.3818359-0.8339844,0.3818359c-0.3632812,0-0.7324219-0.2207031-1.1074219-0.6640625
			c-0.1484375-0.1738281-0.296875-0.2617188-0.4433594-0.2617188c-0.671875,0-1.7050781,1.6142578-3.1015625,4.8427734
			s-2.5234375,6.265625-3.3828125,9.1113281l-0.4423828,1.4492188h-2.4165039l3.2006836-10.671875
			c0.6054688-2.0400391,0.90625-3.4228516,0.90625-4.1474609c0-0.3896484-0.0488281-0.6777344-0.1503906-0.8662109
			c-0.0996094-0.1875-0.2519531-0.28125-0.453125-0.28125c-0.4433594,0-0.996582,0.4765625-1.6611328,1.4296875
			C124.9794464,375.5871887,124.5058136,376.459259,124.2240753,377.2512512z"/>
		<path d="M136.1337433,383.5735168c0-1.6103516,0.3759766-3.3652344,1.1279297-5.265625
			c0.7509766-1.8984375,1.8251953-3.4394531,3.2216797-4.6201172c1.3955078-1.1816406,2.7509766-1.7724609,4.0673828-1.7724609
			c1.1943359,0,2.1777344,0.5068359,2.9492188,1.5205078c0.7724609,1.0136719,1.1582031,2.3857422,1.1582031,4.1171875
			c0,2.0947266-0.4296875,4.0810547-1.2890625,5.9599609c-0.859375,1.8798828-1.9365234,3.3193359-3.2314453,4.3193359
			c-1.2958984,1-2.5673828,1.5-3.8154297,1.5c-1.1142578,0-2.0908203-0.4296875-2.9296875-1.2880859
			C136.5526886,387.184845,136.1337433,385.6946106,136.1337433,383.5735168z M138.2880402,385.8889465
			c0,0.7255859,0.1884766,1.3427734,0.5644531,1.8525391c0.375,0.5107422,0.8916016,0.765625,1.5498047,0.765625
			c1.7988281,0,3.2783203-1.7050781,4.4404297-5.1142578c1.1601562-3.4101562,1.7412109-6.0136719,1.7412109-7.8125
			c0-0.9267578-0.1777344-1.6210938-0.5332031-2.0839844c-0.3564453-0.4638672-0.8896484-0.6953125-1.6005859-0.6953125
			c-1.6787109,0-3.125,1.5810547-4.3398438,4.7421875S138.2880402,383.4866028,138.2880402,385.8889465z"/>
		<path d="M161.121048,383.1506653h0.8056641c-0.6582031,1.9199219-1.5771484,3.4472656-2.7587891,4.5810547
			c-1.1816406,1.1347656-2.4091797,1.7011719-3.6845703,1.7011719c-1.0742188,0-1.9433594-0.40625-2.6074219-1.2177734
			c-0.6650391-0.8125-0.9970703-1.9560547-0.9970703-3.4335938c0-1.7314453,0.4462891-3.6201172,1.3388672-5.6679688
			c0.8925781-2.046875,2.1484375-3.7753906,3.765625-5.1845703s3.0439453-2.1142578,4.2792969-2.1142578
			c0.7109375,0,1.3154297,0.2285156,1.8115234,0.6845703c0.4970703,0.4560547,0.7451172,1.0068359,0.7451172,1.6513672
			c0,0.953125-0.3828125,1.4296875-1.1474609,1.4296875c-0.7783203,0-1.1884766-0.5302734-1.2285156-1.5908203
			c-0.0273438-0.7919922-0.3291016-1.1884766-0.90625-1.1884766c-0.7519531,0-1.6240234,0.6953125-2.6171875,2.0839844
			c-0.9941406,1.3896484-1.8457031,3.2421875-2.5576172,5.5576172c-0.7109375,2.3154297-1.0664062,4.0771484-1.0664062,5.2851562
			c0,0.765625,0.1943359,1.3769531,0.5830078,1.8330078c0.3896484,0.4560547,0.859375,0.6845703,1.4101562,0.6845703
			c0.7919922,0,1.6542969-0.4599609,2.5869141-1.3798828C159.808548,385.9465637,160.5575714,384.7082825,161.121048,383.1506653z"
			/>
		<path d="M180.8730011,384.7219543h0.8457031c-1.1416016,3.140625-2.6855469,4.7109375-4.6308594,4.7109375
			c-0.6582031,0-1.1513672-0.1806641-1.4804688-0.5429688c-0.3291016-0.3632812-0.4931641-0.90625-0.4931641-1.6308594
			c0-1.0205078,0.3623047-2.6513672,1.0869141-4.8935547c-2.3486328,4.7119141-4.6708984,7.0673828-6.9667969,7.0673828
			c-0.8457031,0-1.5097656-0.2617188-1.9931641-0.7851562s-0.7246094-1.1738281-0.7246094-1.953125
			c0-0.7646484,0.3017578-2.0332031,0.90625-3.8056641l2.4765625-7.2285156
			c0.3623047-1.0732422,0.5429688-1.7177734,0.5429688-1.9326172c0-0.3496094-0.1738281-0.5234375-0.5234375-0.5234375
			c-0.8457031,0-1.7714844,1.1337891-2.7783203,3.4023438h-0.9667969c0.5371094-1.4091797,1.2412109-2.5605469,2.1142578-3.453125
			s1.7314453-1.3388672,2.5771484-1.3388672c0.5234375,0,0.9697266,0.1640625,1.3398438,0.4931641
			c0.3681641,0.3291016,0.5537109,0.8222656,0.5537109,1.4804688c0,0.4697266-0.2353516,1.4091797-0.7050781,2.8183594
			l-2.5371094,7.4501953c-0.4833984,1.4501953-0.7246094,2.4033203-0.7246094,2.859375
			c0,0.4160156,0.09375,0.7314453,0.28125,0.9462891c0.1884766,0.2148438,0.4638672,0.3222656,0.8261719,0.3222656
			c1.1806641,0,2.5839844-1.2548828,4.2080078-3.765625c1.6240234-2.5097656,3.1816406-6.2421875,4.671875-11.1953125
			l0.3417969-1.1474609h2.4160156l-3.5234375,11.5576172c-0.5634766,1.8798828-0.8457031,3.0136719-0.8457031,3.4033203
			c0,0.3349609,0.0673828,0.5869141,0.2011719,0.7548828s0.3359375,0.2519531,0.6044922,0.2519531
			C178.9931183,388.04422,179.9599152,386.9367981,180.8730011,384.7219543z"/>
		<path d="M191.9462433,384.037384h0.8867188c-1.3691406,3.5966797-3.1279297,5.3955078-5.2753906,5.3955078
			c-0.7392578,0-1.3291016-0.2451172-1.7724609-0.734375c-0.4433594-0.4902344-0.6640625-1.1044922-0.6640625-1.8427734
			c0-0.7246094,0.4355469-2.5166016,1.3085938-5.3759766l4.7119141-15.5449219
			c0.4023438-1.3154297,0.6035156-2.0800781,0.6035156-2.2949219c0-0.3222656-0.0908203-0.5507812-0.2714844-0.6845703
			c-0.1816406-0.1347656-0.6347656-0.2011719-1.359375-0.2011719h-0.7851562l0.2617188-0.8457031
			c2.2148438-0.0410156,3.8457031-0.2822266,4.8925781-0.7255859h0.5039062l-6.4833984,21.34375
			c-0.0947266,0.3359375-0.2890625,0.9462891-0.5839844,1.8320312c-0.3896484,1.1679688-0.5839844,2.0546875-0.5839844,2.6582031
			c0,0.4023438,0.0771484,0.7050781,0.2314453,0.90625s0.3857422,0.3017578,0.6943359,0.3017578
			c0.4560547,0,1.0273438-0.3154297,1.7119141-0.9462891S191.3153839,385.5676575,191.9462433,384.037384z"/>
		<path d="M208.8388214,372.1164856h2.4160156l-3.5839844,11.7998047c-0.5234375,1.7050781-0.7851562,2.7382812-0.7851562,3.1005859
			c0,0.2685547,0.0605469,0.4736328,0.1816406,0.6142578c0.1201172,0.140625,0.3017578,0.2109375,0.5429688,0.2109375
			c0.9267578,0,1.9941406-1.0595703,3.2021484-3.1806641h0.8457031c-0.5234375,1.2080078-1.2724609,2.3056641-2.2451172,3.2919922
			c-0.9736328,0.9863281-1.8701172,1.4794922-2.6884766,1.4794922c-0.6308594,0-1.1142578-0.234375-1.4501953-0.7041016
			c-0.3349609-0.4697266-0.5029297-1.0478516-0.5029297-1.7324219c0-0.5498047,0.1337891-1.2685547,0.4023438-2.1542969
			c-0.6035156,1.0341797-1.4794922,2.0576172-2.6269531,3.0712891c-1.1484375,1.0126953-2.2255859,1.5195312-3.2324219,1.5195312
			c-0.9394531,0-1.7480469-0.3994141-2.4257812-1.1972656c-0.6777344-0.7988281-1.0166016-1.8759766-1.0166016-3.2324219
			c0-1.8251953,0.5234375-3.7822266,1.5703125-5.8691406s2.4130859-3.8291016,4.0976562-5.2255859
			c1.6845703-1.3955078,3.1240234-2.09375,4.3183594-2.09375c0.6982422,0,1.2519531,0.1679688,1.6611328,0.5029297
			c0.4101562,0.3359375,0.6816406,0.8398438,0.8164062,1.5107422L208.8388214,372.1164856z M198.3075714,385.6076965
			c0,0.8857422,0.1347656,1.5537109,0.4033203,2.0029297c0.2685547,0.4501953,0.6708984,0.6748047,1.2080078,0.6748047
			c0.8857422,0,1.9492188-0.6513672,3.1914062-1.953125c1.2412109-1.3017578,2.3183594-3.2949219,3.2314453-5.9804688
			c0.9130859-2.6845703,1.3691406-4.5097656,1.3691406-5.4765625c0-0.5634766-0.1445312-1.0439453-0.4326172-1.4394531
			c-0.2890625-0.3964844-0.7011719-0.59375-1.2382812-0.59375c-1.6376953,0-3.3359375,1.6171875-5.0947266,4.8525391
			C199.1874542,380.9289856,198.3075714,383.5676575,198.3075714,385.6076965z"/>
		<path d="M216.286087,377.2512512h-0.8857422c0.5634766-1.5029297,1.2714844-2.7851562,2.1240234-3.8457031
			s1.6943359-1.5908203,2.5273438-1.5908203c0.5771484,0,1.0068359,0.2314453,1.2880859,0.6943359
			c0.2822266,0.4638672,0.4228516,1.1650391,0.4228516,2.1044922c0,1.1679688-0.3017578,2.8320312-0.9052734,4.9931641
			c0.0800781-0.1337891,0.3017578-0.6171875,0.6640625-1.4492188c0.9931641-2.2421875,1.8652344-3.859375,2.6171875-4.8525391
			s1.5039062-1.4902344,2.2558594-1.4902344c0.4697266,0,0.8457031,0.1474609,1.1269531,0.4433594
			c0.2822266,0.2949219,0.4228516,0.6503906,0.4228516,1.0664062c0,0.4033203-0.1171875,0.7324219-0.3525391,0.9873047
			c-0.234375,0.2548828-0.5126953,0.3818359-0.8349609,0.3818359c-0.3623047,0-0.7324219-0.2207031-1.1074219-0.6640625
			c-0.1484375-0.1738281-0.2958984-0.2617188-0.4433594-0.2617188c-0.6708984,0-1.7050781,1.6142578-3.1005859,4.8427734
			c-1.3964844,3.2285156-2.5244141,6.265625-3.3828125,9.1113281l-0.4433594,1.4492188h-2.4160156l3.2011719-10.671875
			c0.6044922-2.0400391,0.90625-3.4228516,0.90625-4.1474609c0-0.3896484-0.0498047-0.6777344-0.1503906-0.8662109
			c-0.1005859-0.1875-0.2519531-0.28125-0.453125-0.28125c-0.4433594,0-0.9970703,0.4765625-1.6611328,1.4296875
			C217.0409698,375.5871887,216.5683136,376.459259,216.286087,377.2512512z"/>
	</g>
</g>
</svg>
